<?xml version="1.0" encoding="utf-8"?>
<!-- Generator: Adobe Illustrator 24.0.2, SVG Export Plug-In . SVG Version: 6.00 Build 0)  -->
<svg version="1.1" id="Layer_1" xmlns="http://www.w3.org/2000/svg" xmlns:xlink="http://www.w3.org/1999/xlink" x="0px" y="0px"
	 viewBox="0 0 250 150" style="enable-background:new 0 0 250 150;" xml:space="preserve">
<style type="text/css">
	.st0{fill:#323D43;}
	.st1{clip-path:url(#SVGID_2_);fill:#323D43;}
</style>
<g>
	<g>
		<path class="st0" d="M190.55,71.07h-18.37c-0.93-9.6-4.74-18.37-10.56-25.44l13-13c1.81-1.81,1.81-4.75,0-6.55
			c-1.81-1.81-4.75-1.81-6.55,0l-13,13c-7.07-5.82-15.84-9.63-25.44-10.56V10.16c0-2.56-2.08-4.64-4.64-4.64s-4.64,2.08-4.64,4.64
			v18.37c-9.6,0.93-18.37,4.74-25.44,10.56l-13-13c-1.81-1.81-4.75-1.81-6.55,0c-1.81,1.81-1.81,4.75,0,6.55l13,13
			c-5.82,7.06-9.63,15.84-10.56,25.44H59.45c-2.56,0-4.64,2.08-4.64,4.64c0,2.56,2.08,4.64,4.64,4.64h18.37
			c0.93,9.61,4.74,18.38,10.56,25.44l-13,13c-1.81,1.81-1.81,4.75,0,6.55c1.81,1.81,4.75,1.81,6.55,0l13-13
			c7.06,5.82,15.84,9.63,25.44,10.56v18.37c0,2.56,2.08,4.64,4.64,4.64s4.64-2.08,4.64-4.64v-18.37c9.6-0.93,18.37-4.74,25.44-10.56
			l13,13c1.81,1.81,4.75,1.81,6.55,0c1.81-1.81,1.81-4.75,0-6.55l-13-13c5.82-7.06,9.63-15.84,10.56-25.44h18.37
			c2.56,0,4.64-2.08,4.64-4.64C195.19,73.15,193.11,71.07,190.55,71.07z M120.36,40.72v23.8l-16.81-16.81
			C108.34,44.03,114.1,41.54,120.36,40.72z M113.81,71.07h-23.8c0.82-6.27,3.3-12.02,6.98-16.81L113.81,71.07z M113.81,80.34
			l-0.11,0.11L97,97.16c-3.68-4.79-6.16-10.55-6.98-16.81H113.81z M120.36,86.9v23.8c-6.27-0.82-12.02-3.31-16.81-6.98L120.36,86.9z
			 M119.02,75.71c0-3.3,2.68-5.98,5.98-5.98c3.3,0,5.99,2.68,5.99,5.98c0,3.3-2.68,5.99-5.99,5.99
			C121.7,81.69,119.02,79.01,119.02,75.71z M129.64,64.52v-23.8c6.27,0.82,12.02,3.3,16.81,6.98L129.64,64.52z M129.64,86.9
			l16.81,16.81c-4.79,3.68-10.55,6.16-16.81,6.98V86.9z M136.3,80.45l-0.11-0.11h23.8c-0.83,6.27-3.31,12.02-6.99,16.81L136.3,80.45
			z M136.19,71.07l0.11-0.11l16.71-16.7c3.68,4.79,6.16,10.55,6.98,16.81H136.19z"/>
	</g>
	<path class="st0" d="M120.25,64.41l0.11,0.11v-0.15C120.33,64.37,120.29,64.39,120.25,64.41z M136.3,70.96l-0.11,0.11h0.16
		C136.34,71.04,136.32,71,136.3,70.96z M120.25,87.01c0.04,0.02,0.07,0.03,0.11,0.05V86.9L120.25,87.01z M113.66,80.34
		c0.01,0.04,0.03,0.07,0.04,0.11l0.11-0.11H113.66z M113.7,70.96c-0.02,0.04-0.03,0.07-0.04,0.11h0.15L113.7,70.96z M129.64,86.9
		v0.16c0.04-0.01,0.07-0.03,0.11-0.05L129.64,86.9z M136.19,80.34l0.11,0.11c0.02-0.04,0.04-0.07,0.05-0.11H136.19z M129.64,64.36
		v0.16l0.11-0.11C129.71,64.39,129.67,64.37,129.64,64.36z"/>
</g>
<g>
	<defs>
		<rect id="SVGID_1_" x="44.1" y="-15.11" width="161.81" height="151.69"/>
	</defs>
	<clipPath id="SVGID_2_">
		<use xlink:href="#SVGID_1_"  style="overflow:visible;"/>
	</clipPath>
	<path class="st1" d="M66.8,130.03c0.66,0.72,1.66,1.03,2.62,0.8c0.95-0.23,1.71-0.96,1.97-1.9c0.26-0.94-0.01-1.96-0.71-2.64
		c-26.23-27.12-28.38-69.46-5.01-99.09v6.58c0,1.49,1.21,2.7,2.7,2.7c1.49,0,2.7-1.21,2.7-2.7V20.28c0-1.49-1.21-2.7-2.7-2.7H54.88
		c-1.49,0-2.7,1.21-2.7,2.7s1.21,2.7,2.7,2.7h7.26C36.4,54.7,38.4,100.66,66.8,130.03L66.8,130.03z M66.8,130.03"/>
	<path class="st1" d="M180.08,18.32c-0.52,0.49-0.82,1.17-0.84,1.88c-0.02,0.71,0.25,1.41,0.74,1.93
		c25.64,27.18,27.5,69.05,4.36,98.39v-5.86c0-1.49-1.21-2.7-2.7-2.7c-1.49,0-2.7,1.21-2.7,2.7v12.21c-0.48,0.82-0.47,1.84,0.01,2.66
		c0.48,0.82,1.36,1.32,2.31,1.31h13.86c1.49,0,2.7-1.21,2.7-2.7c0-1.49-1.21-2.7-2.7-2.7h-7.86c26.11-31.39,24.66-77.34-3.36-107.03
		C182.87,17.35,181.16,17.3,180.08,18.32L180.08,18.32z M180.08,18.32"/>
</g>
</svg>
