<?xml version="1.0" encoding="utf-8"?>
<!-- Generator: Adobe Illustrator 24.0.2, SVG Export Plug-In . SVG Version: 6.00 Build 0)  -->
<svg version="1.1" id="Layer_1" xmlns="http://www.w3.org/2000/svg" xmlns:xlink="http://www.w3.org/1999/xlink" x="0px" y="0px"
	 viewBox="0 0 250 150" style="enable-background:new 0 0 250 150;" xml:space="preserve">
<style type="text/css">
	.st0{fill:#323D43;}
</style>
<g>
	<path class="st0" d="M130.92,68.16h41.6c5.46,0,9.89-4.44,9.89-9.89c0-5.45-4.44-9.89-9.89-9.89h-41.6c-5.45,0-9.88,4.43-9.88,9.89
		C121.04,63.72,125.47,68.16,130.92,68.16L130.92,68.16z M130.92,54.46h41.6c2.1,0,3.82,1.71,3.82,3.81c0,2.1-1.71,3.82-3.82,3.82
		h-41.6c-2.1,0-3.81-1.71-3.81-3.82C127.11,56.17,128.82,54.46,130.92,54.46L130.92,54.46z"/>
	<path class="st0" d="M197.13,39.67c3.27,0,5.93-2.66,5.93-5.94V22.95c0-3.27-2.66-5.94-5.93-5.94h-13.52v-3.77
		c0-5.43-4.42-9.85-9.85-9.85h-23.98c-5.43,0-9.85,4.42-9.85,9.85v3.77H110.6v-3.77c0-5.43-4.42-9.85-9.85-9.85H76.78
		c-5.43,0-9.85,4.42-9.85,9.85v3.77H53.4c-3.27,0-5.93,2.66-5.93,5.94v10.79c0,3.27,2.66,5.94,5.93,5.94h0.11v76.8
		c0,6.75,4.76,12.41,11.1,13.8v8.11c0,4.99,4.06,9.05,9.06,9.05h13.4c4.99,0,9.06-4.06,9.06-9.05v-7.77h66.59
		c1.46,9.51,9.7,16.82,19.62,16.82c10.95,0,19.86-8.91,19.86-19.85c0-5.13-1.96-9.81-5.16-13.34V39.67L197.13,39.67z M146.01,13.24
		c0-2.08,1.69-3.77,3.77-3.77h23.98c2.08,0,3.77,1.69,3.77,3.77v3.77h-31.52L146.01,13.24z M73,13.24c0-2.08,1.69-3.77,3.77-3.77
		h23.98c2.08,0,3.77,1.69,3.77,3.77v3.77H73L73,13.24z M90.04,138.38c0,1.64-1.34,2.97-2.98,2.97h-13.4c-1.64,0-2.98-1.33-2.98-2.97
		v-7.77h19.36L90.04,138.38z M162.71,124.53H114.4v-39.1c0-2,1.63-3.63,3.63-3.63h72.92v27.89c-2.61-1.26-5.53-1.97-8.62-1.97
		C172.42,107.72,164.18,115.02,162.71,124.53L162.71,124.53z M182.33,141.35c-7.6,0-13.77-6.18-13.77-13.77s6.18-13.77,13.77-13.77
		c7.6,0,13.78,6.18,13.78,13.77C196.11,135.17,189.93,141.35,182.33,141.35L182.33,141.35z M196.98,33.59h-58.07
		c-1.68,0-3.04,1.36-3.04,3.04s1.36,3.04,3.04,3.04h52.03v36.05h-72.92c-5.35,0-9.7,4.35-9.7,9.7v39.1H93.08H67.64
		c-4.44,0-8.06-3.61-8.06-8.06v-76.8h52c1.68,0,3.04-1.36,3.04-3.04s-1.36-3.04-3.04-3.04H53.55v-10.5h143.43V33.59z"/>
	<path class="st0" d="M94.69,96.85c-0.11-1.56-1.46-2.81-3.03-2.81h-8.98l6.45-12.96c0.75-1.5,0.14-3.33-1.37-4.07
		c-1.5-0.75-3.33-0.14-4.07,1.37l-8.63,17.35c-0.98,1.98,0.51,4.4,2.73,4.39h8.97l-6.45,12.95c-0.75,1.5-0.14,3.33,1.37,4.07
		c0.44,0.22,0.9,0.32,1.35,0.32c1.12,0,2.19-0.62,2.72-1.68l8.64-17.35C94.63,97.95,94.73,97.39,94.69,96.85L94.69,96.85z"/>
	<path class="st0" d="M104.24,48.38c-5.45,0-9.88,4.43-9.88,9.89c0,5.46,4.43,9.89,9.88,9.89c5.45,0,9.88-4.44,9.88-9.89
		C114.12,52.82,109.69,48.38,104.24,48.38z M104.24,62.08c-2.1,0-3.81-1.71-3.81-3.82c0-2.1,1.71-3.81,3.81-3.81
		c2.1,0,3.81,1.71,3.81,3.81C108.04,60.37,106.34,62.08,104.24,62.08z"/>
	<path class="st0" d="M87.89,58.27c0-5.45-4.43-9.89-9.88-9.89c-5.45,0-9.88,4.43-9.88,9.89c0,5.46,4.43,9.89,9.88,9.89
		C83.46,68.16,87.89,63.72,87.89,58.27z M74.2,58.27c0-2.1,1.71-3.81,3.81-3.81s3.81,1.71,3.81,3.81c0,2.1-1.71,3.82-3.81,3.82
		S74.2,60.37,74.2,58.27z"/>
	<path class="st0" d="M124.08,89.08c-1.68,0-3.04,1.36-3.04,3.04v0.02c0,1.68,1.36,3.03,3.04,3.03s3.04-1.37,3.04-3.05
		C127.11,90.44,125.75,89.08,124.08,89.08L124.08,89.08z"/>
	<path class="st0" d="M124.08,102.43c-1.68,0-3.04,1.36-3.04,3.04v0.03c0,1.68,1.36,3.03,3.04,3.03s3.04-1.37,3.04-3.05
		C127.11,103.79,125.75,102.43,124.08,102.43L124.08,102.43z"/>
	<path class="st0" d="M136.26,89.08c-1.68,0-3.04,1.36-3.04,3.04v0.02c0,1.68,1.36,3.03,3.04,3.03c1.68,0,3.04-1.37,3.04-3.05
		C139.3,90.44,137.94,89.08,136.26,89.08L136.26,89.08z"/>
	<path class="st0" d="M136.26,102.43c-1.68,0-3.04,1.36-3.04,3.04v0.03c0,1.68,1.36,3.03,3.04,3.03c1.68,0,3.04-1.37,3.04-3.05
		C139.3,103.79,137.94,102.43,136.26,102.43z"/>
	<path class="st0" d="M148.43,89.08c-1.68,0-3.04,1.36-3.04,3.04v0.02c0,1.68,1.36,3.03,3.04,3.03s3.04-1.37,3.04-3.05
		C151.47,90.44,150.11,89.08,148.43,89.08L148.43,89.08z"/>
	<path class="st0" d="M148.43,102.43c-1.68,0-3.04,1.36-3.04,3.04v0.03c0,1.68,1.36,3.03,3.04,3.03s3.04-1.37,3.04-3.05
		C151.47,103.79,150.11,102.43,148.43,102.43z"/>
	<path class="st0" d="M184.85,92.14c0-1.68-1.36-3.04-3.04-3.04h-19.72c-1.68,0-3.04,1.36-3.04,3.04c0,1.68,1.36,3.04,3.04,3.04
		h19.72C183.49,95.17,184.85,93.81,184.85,92.14z"/>
	<path class="st0" d="M182.33,124.53c-1.68,0-3.04,1.36-3.04,3.04v0.02c0,1.68,1.36,3.03,3.04,3.03c1.68,0,3.04-1.37,3.04-3.05
		S184,124.53,182.33,124.53z"/>
	<path class="st0" d="M125.25,39.67h0.02c1.68,0,3.03-1.36,3.03-3.04s-1.37-3.04-3.05-3.04c-1.68,0-3.04,1.36-3.04,3.04
		S123.57,39.67,125.25,39.67L125.25,39.67z"/>
</g>
</svg>
