<?xml version="1.0" encoding="utf-8"?>
<!-- Generator: Adobe Illustrator 24.0.2, SVG Export Plug-In . SVG Version: 6.00 Build 0)  -->
<svg version="1.1" id="Layer_1" xmlns="http://www.w3.org/2000/svg" xmlns:xlink="http://www.w3.org/1999/xlink" x="0px" y="0px"
	 viewBox="0 0 250 150" style="enable-background:new 0 0 250 150;" xml:space="preserve">
<style type="text/css">
	.st0{fill:#323D43;}
</style>
<path class="st0" d="M172.42,52.76h-19.7c2.15-4.54,3.55-9.35,3.66-14.26c0-17.31-14.08-31.39-31.39-31.39S93.61,21.19,93.61,38.5
	c0.12,4.92,1.51,9.72,3.66,14.26h-19.7l-20.47,90.13h135.77L172.42,52.76z M101.57,38.5c0-12.92,10.51-23.43,23.43-23.43
	s23.43,10.51,23.43,23.43c0.35,12.62-15.72,29.04-23.43,35.31C117.29,67.53,101.22,51.12,101.57,38.5L101.57,38.5z M83.93,60.72
	h17.99c8.46,12.26,20.66,21.35,23.08,23.2c2.42-1.85,14.62-10.95,23.08-23.2h17.99l2.34,10.31H152.6l-9.13,18.23H77.45L83.93,60.72z
	 M67.08,134.93l4.41-19.43h23.99l12.96,19.43H67.08z M118,134.93l-18.26-27.39H73.3l2.35-10.33h72.74l9.13-18.23h12.7l2.33,10.28
	h-8.61l-9.11,18.29h-42.04l18.26,27.39H118z M127.66,115.5h32.1l9.11-18.29h5.49l8.57,37.72h-42.31L127.66,115.5z M125,51.53
	c7.23,0,13.11-5.88,13.11-13.11S132.23,25.31,125,25.31c-7.23,0-13.11,5.88-13.11,13.11S117.77,51.53,125,51.53z M125,33.27
	c2.84,0,5.15,2.31,5.15,5.15c0,2.84-2.31,5.15-5.15,5.15s-5.15-2.31-5.15-5.15C119.85,35.58,122.16,33.27,125,33.27z"/>
</svg>
