<?xml version="1.0" encoding="utf-8"?>
<!-- Generator: Adobe Illustrator 24.0.2, SVG Export Plug-In . SVG Version: 6.00 Build 0)  -->
<svg version="1.1" id="Layer_1" xmlns="http://www.w3.org/2000/svg" xmlns:xlink="http://www.w3.org/1999/xlink" x="0px" y="0px"
	 viewBox="0 0 250 150" style="enable-background:new 0 0 250 150;" xml:space="preserve">
<style type="text/css">
	.st0{fill:#323D43;}
</style>
<path class="st0" d="M174.93,25.07C161.59,11.73,143.86,4.39,125,4.39c-18.86,0-36.59,7.34-49.93,20.68
	C61.73,38.41,54.39,56.14,54.39,75s7.34,36.59,20.68,49.93c13.34,13.34,31.07,20.68,49.93,20.68c18.86,0,36.59-7.34,49.93-20.68
	c13.34-13.34,20.68-31.07,20.68-49.93S188.27,38.41,174.93,25.07z M109.08,14.73c-0.97,2.17-1.52,4.57-1.52,7.09
	c0,4.13,1.54,14.38,4.03,23.76c1.63,6.12,3.33,10.76,5.2,14.04c-3.04,1.63-5.54,4.13-7.17,7.17c-3.28-1.87-7.92-3.57-14.04-5.2
	c-9.37-2.49-19.63-4.03-23.76-4.03c-2.53,0-4.93,0.54-7.09,1.52C70.44,37.48,87.48,20.44,109.08,14.73z M111.6,104.42
	c-2.49,9.37-4.03,19.63-4.03,23.76c0,2.53,0.54,4.93,1.52,7.09c-21.6-5.71-38.65-22.75-44.36-44.36c2.17,0.97,4.57,1.52,7.1,1.52
	c4.13,0,14.38-1.54,23.76-4.03c6.12-1.63,10.76-3.33,14.04-5.2c1.63,3.04,4.13,5.54,7.17,7.17
	C114.93,93.66,113.23,98.3,111.6,104.42z M138.4,45.58c2.49-9.37,4.03-19.63,4.03-23.76c0-2.53-0.54-4.93-1.52-7.09
	c21.6,5.71,38.65,22.75,44.36,44.36c-2.17-0.97-4.57-1.52-7.09-1.52c-4.13,0-14.38,1.54-23.76,4.03c-6.12,1.63-10.76,3.33-14.04,5.2
	c-1.63-3.04-4.13-5.55-7.17-7.17C135.07,56.34,136.77,51.7,138.4,45.58z M140.92,135.27c0.97-2.17,1.52-4.57,1.52-7.09
	c0-4.13-1.54-14.38-4.03-23.76c-1.63-6.12-3.33-10.76-5.2-14.04c3.04-1.63,5.55-4.13,7.17-7.17c3.28,1.87,7.92,3.57,14.04,5.2
	c9.37,2.49,19.63,4.03,23.76,4.03c2.53,0,4.93-0.54,7.1-1.52C179.56,112.52,162.52,129.56,140.92,135.27z"/>
</svg>
