<?xml version="1.0" encoding="utf-8"?>
<!-- Generator: Adobe Illustrator 24.0.2, SVG Export Plug-In . SVG Version: 6.00 Build 0)  -->
<svg version="1.1" id="Layer_1" xmlns="http://www.w3.org/2000/svg" xmlns:xlink="http://www.w3.org/1999/xlink" x="0px" y="0px"
	 viewBox="0 0 250 150" style="enable-background:new 0 0 250 150;" xml:space="preserve">
<style type="text/css">
	.st0{fill:#323D43;}
</style>
<g>
	<g>
		<path class="st0" d="M197.41,71.01c-2.29,0-4.14,1.85-4.14,4.14c0,34.42-28,62.42-62.41,62.42c-34.42,0-62.42-28-62.42-62.42
			c0-34.42,28-62.42,62.41-62.42c15.28,0,29.73,5.46,41.11,15.45l-13.01,13.01c-7.89-6.55-17.72-10.12-28.1-10.12
			c-24.3,0-44.08,19.77-44.08,44.08s19.77,44.08,44.08,44.08c24.3,0,44.08-19.77,44.08-44.08c0-2.29-1.85-4.14-4.14-4.14
			c-2.29,0-4.14,1.85-4.14,4.14c0,19.74-16.06,35.79-35.79,35.79c-19.74,0-35.79-16.06-35.79-35.79s16.06-35.79,35.79-35.79
			c8.16,0,15.91,2.72,22.21,7.72l-13.15,13.15c-2.7-1.65-5.82-2.53-9.06-2.53c-9.62,0-17.45,7.83-17.45,17.45
			c0,9.62,7.83,17.45,17.45,17.45s17.45-7.83,17.45-17.45c0-3.25-0.88-6.36-2.53-9.06l35.07-35.07c0.81-0.81,1.21-1.87,1.21-2.93
			c0-1.06-0.4-2.12-1.21-2.93c-13.35-13.35-31.11-20.71-49.99-20.71c-18.88,0-36.64,7.35-49.99,20.71
			C67.51,38.51,60.16,56.27,60.15,75.15c0,18.88,7.35,36.64,20.71,49.99c13.35,13.35,31.11,20.71,49.99,20.71
			c18.88,0,36.64-7.35,49.99-20.71c13.35-13.35,20.71-31.11,20.71-49.99C201.56,72.86,199.7,71.01,197.41,71.01z M130.86,84.32
			c-5.06,0-9.17-4.11-9.17-9.17c0-5.06,4.11-9.17,9.17-9.17c2.45,0,4.75,0.95,6.48,2.68c0,0,0,0,0,0c0,0,0,0,0,0
			c1.73,1.73,2.68,4.03,2.68,6.48C140.02,80.21,135.91,84.32,130.86,84.32z"/>
	</g>
</g>
</svg>
