<?xml version="1.0" encoding="utf-8"?>
<!-- Generator: Adobe Illustrator 24.0.2, SVG Export Plug-In . SVG Version: 6.00 Build 0)  -->
<svg version="1.1" id="Layer_1" xmlns="http://www.w3.org/2000/svg" xmlns:xlink="http://www.w3.org/1999/xlink" x="0px" y="0px"
	 viewBox="0 0 250 150" style="enable-background:new 0 0 250 150;" xml:space="preserve">
<style type="text/css">
	.st0{fill:#323D43;}
</style>
<path class="st0" d="M58.54,137.32c-2.28,0-4.14,1.85-4.14,4.14c0,2.28,1.85,4.14,4.14,4.14h132.91c2.28,0,4.14-1.85,4.14-4.14
	c0-2.28-1.85-4.14-4.14-4.14h-12.41V120.5h12.41c1.33,0,2.58-0.64,3.36-1.72c0.78-1.08,0.99-2.47,0.57-3.73
	c-0.92-2.77-15.53-46.6-16.55-49.64c-0.56-1.69-2.14-2.83-3.92-2.83h-23.75c1.24-2.61,2.08-5.4,2.5-8.27h12.71
	c2.28,0,4.14-1.85,4.14-4.14s-1.85-4.14-4.14-4.14h-12.71c-0.7-4.9-2.64-9.4-5.48-13.19l8.99-8.99c1.62-1.62,1.62-4.23,0-5.85
	c-1.61-1.62-4.23-1.62-5.85,0L142.33,27c-3.79-2.84-8.3-4.77-13.19-5.48V8.54c0-2.28-1.85-4.14-4.14-4.14
	c-2.28,0-4.14,1.85-4.14,4.14v12.98c-4.9,0.7-9.4,2.64-13.19,5.48l-8.99-8.99c-1.62-1.62-4.23-1.62-5.85,0
	c-1.62,1.62-1.62,4.23,0,5.85l8.99,8.99c-2.84,3.79-4.77,8.3-5.48,13.19H83.64c-2.28,0-4.14,1.85-4.14,4.14s1.85,4.14,4.14,4.14
	h12.71c0.41,2.88,1.26,5.66,2.5,8.27H75.09c-1.78,0-3.36,1.14-3.92,2.83c-1.01,3.04-15.62,46.87-16.55,49.64
	c-0.42,1.26-0.21,2.65,0.57,3.73c0.78,1.08,2.03,1.72,3.36,1.72h12.41v16.82H58.54z M170.78,137.32H79.22V120.5h91.55V137.32z
	 M185.72,112.23h-24.12l-1.38-8.27h22.74L185.72,112.23z M177.45,87.41l2.76,8.27h-21.37l-1.38-8.27H177.45z M171.93,70.86
	l2.76,8.27h-18.61l-1.38-8.27H171.93z M151.83,103.95l1.38,8.27h-24.07v-8.27H151.83z M149.07,87.41l1.38,8.27h-21.31v-8.27H149.07z
	 M147.69,79.14h-18.56v-8.27h17.18L147.69,79.14z M125,29.5c11.4,0,20.68,9.28,20.68,20.68c0,4.5-1.46,8.84-4.14,12.41h-33.09
	c-2.68-3.57-4.14-7.91-4.14-12.41C104.32,38.78,113.6,29.5,125,29.5L125,29.5z M103.69,70.86h17.18v8.27h-18.56L103.69,70.86z
	 M100.93,87.41h19.94v8.27H99.55L100.93,87.41z M98.17,103.95h22.69v8.27H96.79L98.17,103.95z M78.07,70.86H95.3l-1.38,8.27H75.31
	L78.07,70.86z M72.55,87.41h19.99l-1.38,8.27H69.8L72.55,87.41z M64.28,112.23l2.76-8.27h22.74l-1.38,8.27H64.28z"/>
</svg>
