<svg width="39" height="38" viewBox="0 0 39 38" fill="none" xmlns="http://www.w3.org/2000/svg">
<rect width="39" height="38" fill="#E5E5E5"/>
<mask id="path-1-inside-1" fill="white">
<path fill-rule="evenodd" clip-rule="evenodd" d="M-51.4872 37.9939V38H-51H19.641V37.9939C19.8029 37.998 19.9653 38 20.1282 38C30.6216 38 39.1282 29.4934 39.1282 19C39.1282 8.50659 30.6216 0 20.1282 0C19.9653 0 19.8029 0.00204957 19.641 0.00612434V0H-51H-51.4872V0.00612424C-61.7554 0.264559 -70 8.66947 -70 19C-70 29.3305 -61.7554 37.7354 -51.4872 37.9939Z"/>
</mask>
<path fill-rule="evenodd" clip-rule="evenodd" d="M-51.4872 37.9939V38H-51H19.641V37.9939C19.8029 37.998 19.9653 38 20.1282 38C30.6216 38 39.1282 29.4934 39.1282 19C39.1282 8.50659 30.6216 0 20.1282 0C19.9653 0 19.8029 0.00204957 19.641 0.00612434V0H-51H-51.4872V0.00612424C-61.7554 0.264559 -70 8.66947 -70 19C-70 29.3305 -61.7554 37.7354 -51.4872 37.9939Z" fill="#CEB896"/>
<path d="M-51.4872 38H-53.4872V40H-51.4872V38ZM-51.4872 37.9939H-49.4872V36.0436L-51.4369 35.9945L-51.4872 37.9939ZM19.641 38V40H21.641V38H19.641ZM19.641 37.9939L19.6913 35.9945L17.641 35.9429V37.9939H19.641ZM19.641 0.00612434H17.641V2.0571L19.6913 2.00549L19.641 0.00612434ZM19.641 0H21.641V-2H19.641V0ZM-51.4872 0V-2H-53.4872V0H-51.4872ZM-51.4872 0.00612424L-51.4369 2.00549L-49.4872 1.95642V0.00612424H-51.4872ZM-49.4872 38V37.9939H-53.4872V38H-49.4872ZM-51 36H-51.4872V40H-51V36ZM19.641 36H-51V40H19.641V36ZM17.641 37.9939V38H21.641V37.9939H17.641ZM19.5907 39.9932C19.7694 39.9977 19.9486 40 20.1282 40V36C19.9821 36 19.8365 35.9982 19.6913 35.9945L19.5907 39.9932ZM20.1282 40C31.7262 40 41.1282 30.598 41.1282 19H37.1282C37.1282 28.3888 29.517 36 20.1282 36V40ZM41.1282 19C41.1282 7.40202 31.7262 -2 20.1282 -2V2C29.517 2 37.1282 9.61116 37.1282 19H41.1282ZM20.1282 -2C19.9485 -2 19.7694 -1.99774 19.5907 -1.99324L19.6913 2.00549C19.8365 2.00184 19.9821 2 20.1282 2V-2ZM17.641 0V0.00612434H21.641V0H17.641ZM-51 2H19.641V-2H-51V2ZM-51.4872 2H-51V-2H-51.4872V2ZM-49.4872 0.00612424V0H-53.4872V0.00612424H-49.4872ZM-51.5375 -1.99324C-62.8876 -1.70758 -72 7.58175 -72 19H-68C-68 9.75719 -60.6232 2.2367 -51.4369 2.00549L-51.5375 -1.99324ZM-72 19C-72 30.4182 -62.8876 39.7076 -51.5375 39.9932L-51.4369 35.9945C-60.6232 35.7633 -68 28.2428 -68 19H-72Z" fill="#2B3B42" mask="url(#path-1-inside-1)"/>
</svg>
