<svg width="39" height="38" viewBox="0 0 39 38" fill="none" xmlns="http://www.w3.org/2000/svg">
<rect width="39" height="38" fill="#E5E5E5"/>
<mask id="path-1-inside-1" fill="white">
<path fill-rule="evenodd" clip-rule="evenodd" d="M-20.4872 37.9939V38H-20H50.641V37.9939C50.8029 37.998 50.9653 38 51.1282 38C61.6216 38 70.1282 29.4934 70.1282 19C70.1282 8.50659 61.6216 0 51.1282 0C50.9653 0 50.8029 0.00204957 50.641 0.00612434V0H-20H-20.4872V0.00612424C-30.7554 0.264559 -39 8.66947 -39 19C-39 29.3305 -30.7554 37.7354 -20.4872 37.9939Z"/>
</mask>
<path fill-rule="evenodd" clip-rule="evenodd" d="M-20.4872 37.9939V38H-20H50.641V37.9939C50.8029 37.998 50.9653 38 51.1282 38C61.6216 38 70.1282 29.4934 70.1282 19C70.1282 8.50659 61.6216 0 51.1282 0C50.9653 0 50.8029 0.00204957 50.641 0.00612434V0H-20H-20.4872V0.00612424C-30.7554 0.264559 -39 8.66947 -39 19C-39 29.3305 -30.7554 37.7354 -20.4872 37.9939Z" fill="#CEB896"/>
<path d="M-20.4872 38H-22.4872V40H-20.4872V38ZM-20.4872 37.9939H-18.4872V36.0436L-20.4369 35.9945L-20.4872 37.9939ZM50.641 38V40H52.641V38H50.641ZM50.641 37.9939L50.6913 35.9945L48.641 35.9429V37.9939H50.641ZM50.641 0.00612434H48.641V2.0571L50.6913 2.00549L50.641 0.00612434ZM50.641 0H52.641V-2H50.641V0ZM-20.4872 0V-2H-22.4872V0H-20.4872ZM-20.4872 0.00612424L-20.4369 2.00549L-18.4872 1.95642V0.00612424H-20.4872ZM-18.4872 38V37.9939H-22.4872V38H-18.4872ZM-20 36H-20.4872V40H-20V36ZM50.641 36H-20V40H50.641V36ZM48.641 37.9939V38H52.641V37.9939H48.641ZM50.5907 39.9932C50.7694 39.9977 50.9486 40 51.1282 40V36C50.9821 36 50.8365 35.9982 50.6913 35.9945L50.5907 39.9932ZM51.1282 40C62.7262 40 72.1282 30.598 72.1282 19H68.1282C68.1282 28.3888 60.517 36 51.1282 36V40ZM72.1282 19C72.1282 7.40202 62.7262 -2 51.1282 -2V2C60.517 2 68.1282 9.61116 68.1282 19H72.1282ZM51.1282 -2C50.9485 -2 50.7694 -1.99774 50.5907 -1.99324L50.6913 2.00549C50.8365 2.00184 50.9821 2 51.1282 2V-2ZM48.641 0V0.00612434H52.641V0H48.641ZM-20 2H50.641V-2H-20V2ZM-20.4872 2H-20V-2H-20.4872V2ZM-18.4872 0.00612424V0H-22.4872V0.00612424H-18.4872ZM-20.5375 -1.99324C-31.8876 -1.70758 -41 7.58175 -41 19H-37C-37 9.75719 -29.6232 2.2367 -20.4369 2.00549L-20.5375 -1.99324ZM-41 19C-41 30.4182 -31.8876 39.7076 -20.5375 39.9932L-20.4369 35.9945C-29.6232 35.7633 -37 28.2428 -37 19H-41Z" fill="#2B3B42" mask="url(#path-1-inside-1)"/>
</svg>
