<svg width="39" height="38" viewBox="0 0 39 38" fill="none" xmlns="http://www.w3.org/2000/svg">
<rect width="39" height="38" fill="#E5E5E5"/>
<mask id="path-1-inside-1" fill="white">
<path fill-rule="evenodd" clip-rule="evenodd" d="M18.5128 37.9939V38H19H89.641V37.9939C89.8029 37.998 89.9653 38 90.1282 38C100.622 38 109.128 29.4934 109.128 19C109.128 8.50659 100.622 0 90.1282 0C89.9653 0 89.8029 0.00204957 89.641 0.00612434V0H19H18.5128V0.00612424C8.24456 0.264559 0 8.66947 0 19C0 29.3305 8.24456 37.7354 18.5128 37.9939Z"/>
</mask>
<path fill-rule="evenodd" clip-rule="evenodd" d="M18.5128 37.9939V38H19H89.641V37.9939C89.8029 37.998 89.9653 38 90.1282 38C100.622 38 109.128 29.4934 109.128 19C109.128 8.50659 100.622 0 90.1282 0C89.9653 0 89.8029 0.00204957 89.641 0.00612434V0H19H18.5128V0.00612424C8.24456 0.264559 0 8.66947 0 19C0 29.3305 8.24456 37.7354 18.5128 37.9939Z" fill="#CEB896"/>
<path d="M18.5128 38H16.5128V40H18.5128V38ZM18.5128 37.9939H20.5128V36.0436L18.5631 35.9945L18.5128 37.9939ZM89.641 38V40H91.641V38H89.641ZM89.641 37.9939L89.6913 35.9945L87.641 35.9429V37.9939H89.641ZM89.641 0.00612434H87.641V2.0571L89.6913 2.00549L89.641 0.00612434ZM89.641 0H91.641V-2H89.641V0ZM18.5128 0V-2H16.5128V0H18.5128ZM18.5128 0.00612424L18.5631 2.00549L20.5128 1.95642V0.00612424H18.5128ZM20.5128 38V37.9939H16.5128V38H20.5128ZM19 36H18.5128V40H19V36ZM89.641 36H19V40H89.641V36ZM87.641 37.9939V38H91.641V37.9939H87.641ZM89.5907 39.9932C89.7694 39.9977 89.9486 40 90.1282 40V36C89.9821 36 89.8365 35.9982 89.6913 35.9945L89.5907 39.9932ZM90.1282 40C101.726 40 111.128 30.598 111.128 19H107.128C107.128 28.3888 99.517 36 90.1282 36V40ZM111.128 19C111.128 7.40202 101.726 -2 90.1282 -2V2C99.517 2 107.128 9.61116 107.128 19H111.128ZM90.1282 -2C89.9485 -2 89.7694 -1.99774 89.5907 -1.99324L89.6913 2.00549C89.8365 2.00184 89.9821 2 90.1282 2V-2ZM87.641 0V0.00612434H91.641V0H87.641ZM19 2H89.641V-2H19V2ZM18.5128 2H19V-2H18.5128V2ZM20.5128 0.00612424V0H16.5128V0.00612424H20.5128ZM18.4625 -1.99324C7.11237 -1.70758 -2 7.58175 -2 19H2C2 9.75719 9.37675 2.2367 18.5631 2.00549L18.4625 -1.99324ZM-2 19C-2 30.4182 7.11237 39.7076 18.4625 39.9932L18.5631 35.9945C9.37675 35.7633 2 28.2428 2 19H-2Z" fill="#2B3B42" mask="url(#path-1-inside-1)"/>
</svg>
