<svg width="181" height="182" viewBox="0 0 181 182" fill="none" xmlns="http://www.w3.org/2000/svg">
<path d="M90.8535 181.289C140.381 181.289 180.646 140.801 180.646 91C180.646 41.1988 140.381 0.710938 90.8535 0.710938C41.326 0.710938 1.06055 41.1988 1.06055 91C1.06055 140.801 41.326 181.289 90.8535 181.289ZM90.8535 8.74453C135.962 8.74453 172.657 45.6422 172.657 91C172.657 136.358 135.962 173.255 90.8535 173.255C45.7449 173.255 9.05 136.358 9.05 91C9.05 45.6422 45.7449 8.74453 90.8535 8.74453Z" fill="#CEB896"/>
<path d="M97.9238 88.0141C104.358 88.0141 109.59 82.7531 109.59 76.2836C109.59 69.8141 104.358 64.5531 97.9238 64.5531C91.4898 64.5531 86.2578 69.8141 86.2578 76.2836C86.2578 82.7531 91.4898 88.0141 97.9238 88.0141ZM97.9238 70.2051C101.247 70.2051 103.969 72.9066 103.969 76.2836C103.969 79.625 101.282 82.3621 97.9238 82.3621C94.6008 82.3621 91.8787 79.6605 91.8787 76.2836C91.8787 72.9422 94.6008 70.2406 97.9238 70.2051Z" fill="#CEB896"/>
<path d="M116.696 111.866C116.696 118.336 121.928 123.596 128.362 123.596C134.796 123.596 140.028 118.336 140.028 111.866C140.028 105.396 134.796 100.136 128.362 100.136C121.928 100.136 116.696 105.396 116.696 111.866ZM134.371 111.866C134.371 115.207 131.685 117.945 128.326 117.945C125.003 117.945 122.281 115.243 122.281 111.866C122.281 108.489 124.968 105.788 128.326 105.788C131.685 105.823 134.371 108.525 134.371 111.866Z" fill="#CEB896"/>
<path d="M92.0555 126.796C93.3635 127.649 95.0957 127.293 95.9442 125.978L135.75 64.5887C136.316 63.7355 136.351 62.6691 135.891 61.7449C135.432 60.8562 134.548 60.252 133.523 60.1809C132.533 60.1098 131.543 60.6074 131.013 61.4605L91.2071 122.886C90.3586 124.165 90.7475 125.943 92.0555 126.796Z" fill="#CEB896"/>
<path d="M48.2903 122.921C45.4622 119.615 44.0481 115.03 44.0481 109.129V79.1273C44.0481 73.191 45.4622 68.6055 48.3256 65.2996C51.1538 62.0293 55.3252 60.3586 60.7694 60.3586C66.2489 60.3586 70.385 61.9938 73.2131 65.2641C76.0413 68.5344 77.4553 73.1555 77.4553 79.0918V109.093C77.4553 115.03 76.0413 119.615 73.1778 122.921C70.3497 126.191 66.1782 127.862 60.734 127.862C55.2545 127.862 51.1184 126.191 48.2903 122.921ZM67.1327 116.487C68.5114 114.781 69.2184 112.328 69.2184 109.129V79.1273C69.2184 75.9281 68.5467 73.4754 67.168 71.7691C65.7893 70.0629 63.6682 69.2098 60.734 69.2098C57.7999 69.2098 55.6788 70.0629 54.3001 71.7691C52.9213 73.4754 52.2497 75.9281 52.2497 79.1273V109.129C52.2497 112.328 52.9567 114.781 54.3354 116.487C55.7141 118.193 57.8706 119.046 60.734 119.046C63.6329 119.046 65.754 118.193 67.1327 116.487Z" fill="#CEB896"/>
</svg>
