<?xml version="1.0" encoding="utf-8"?>
<!-- Generator: Adobe Illustrator 24.0.2, SVG Export Plug-In . SVG Version: 6.00 Build 0)  -->
<svg version="1.1" id="Capa_1" xmlns="http://www.w3.org/2000/svg" xmlns:xlink="http://www.w3.org/1999/xlink" x="0px" y="0px"
	 viewBox="0 0 512 512" style="enable-background:new 0 0 512 512;" xml:space="preserve">
<style type="text/css">
	.st0{fill:#323D43;}
</style>
<path class="st0" d="M379.9,318.9c-29.7,0-56.3,13.5-73.9,34.8l-114.7-65.1c3.6-10,5.5-20.8,5.5-32.1c0-11.2-2-22-5.5-32.1
	l114.7-65.1c17.6,21.2,44.2,34.8,73.9,34.8c52.9,0,96-43.1,96-96.1c0-53-43.1-96-96-96c-53,0-96,43.1-96,96c0,11.2,2,22,5.5,32.1
	l-114.7,65.1c-17.6-21.2-44.2-34.8-73.9-34.8c-53,0-96,43.1-96,96c0,52.9,43.1,96,96,96c29.7,0,56.2-13.5,73.9-34.8l114.7,65.1
	c-3.6,10-5.5,20.8-5.5,32.1c0,52.9,43.1,96,96,96c52.9,0,96-43.1,96-96C476,362,432.9,318.9,379.9,318.9z M379.9,35.6
	c34.4,0,62.4,28,62.4,62.4c0,34.4-28,62.5-62.4,62.5c-34.4,0-62.4-28-62.4-62.5C317.5,63.6,345.5,35.6,379.9,35.6z M100.9,318.9
	c-34.4,0-62.4-28-62.4-62.4c0-34.4,28-62.4,62.4-62.4c34.4,0,62.4,28,62.4,62.4C163.3,290.9,135.3,318.9,100.9,318.9z M379.9,477.4
	c-34.4,0-62.4-28-62.4-62.4c0-34.4,28-62.4,62.4-62.4c34.4,0,62.4,28,62.4,62.4C442.4,449.4,414.4,477.4,379.9,477.4z"/>
</svg>
