<svg viewBox="0 0 82 83" xmlns="http://www.w3.org/2000/svg">
<g clip-path="url(#clip0)">
<path d="M17.6024 0C17.0024 0 16.5024 0.0999512 15.9024 0.199951C14.8024 0.399951 13.7024 0.9 12.5024 1.5C10.2024 2.7 7.70242 4.4 5.70242 6.5C0.702418 11.5 -0.697582 18.2 0.302418 24.7C1.30242 31.2 4.70242 37.6 9.50242 42.4L39.6024 72.6C44.4024 77.4 50.8024 80.7999 57.3024 81.7999C63.8024 82.7999 70.5024 81.3 75.5024 76.4C77.5024 74.4 79.3024 71.9 80.5024 69.6C81.1024 68.4 81.5024 67.3 81.8024 66.2C82.1024 65.1 82.2024 63.9 81.4024 62.7C81.3024 62.5 81.1024 62.4 80.9024 62.2L64.7024 50.4C63.9024 49.8 62.8024 49.9 62.1024 50.6L58.8024 53.9C57.4024 55.3 55.9024 55.9 54.7024 56C53.4024 56.1 52.3024 55.7 51.0024 54.4L27.5024 31C26.3024 29.8 25.9024 28.6 25.9024 27.3C26.0024 26 26.6024 24.6 28.1024 23.2L31.4024 19.9C32.1024 19.2 32.2024 18.1 31.6024 17.3L19.9024 1.09998C19.8024 0.899976 19.6024 0.699976 19.4024 0.599976C18.8024 0.199976 18.2024 0.1 17.6024 0ZM17.1024 4.09998L27.4024 18.3L25.2024 20.5C23.2024 22.5 22.1024 24.8 21.9024 27.2C21.7024 29.6 22.7024 32.1 24.6024 34L48.1024 57.5C50.0024 59.4 52.4024 60.4 54.8024 60.2C57.2024 60.1 59.5024 58.8 61.5024 56.9L63.6024 54.8L77.8024 65.1C77.8024 65.2 77.8024 65.3 77.8024 65.5C77.7024 66.1 77.3024 67 76.9024 67.9C75.9024 69.8 74.4024 72.1 72.7024 73.7C68.7024 77.7 63.4024 78.9 57.9024 78C52.4024 77.1 46.7024 74.2 42.4024 69.9L12.2024 39.8C8.00242 35.6 5.00242 29.9 4.10242 24.3C3.20242 18.7 4.40242 13.5 8.40242 9.5C10.0024 7.9 12.2024 6.29999 14.2024 5.29999C15.2024 4.79999 16.1024 4.49996 16.7024 4.39996C16.9024 4.09996 17.0024 4.09998 17.1024 4.09998Z"/>
</g>
<defs>
<clipPath id="clip0">
<rect fill="white"/>
</clipPath>
</defs>
</svg>
