
  <svg
    className="pin-icon"
    xmlns="http://www.w3.org/2000/svg"
    viewBox="0 0 48 60"
  >
    <title>Asset 1</title>
    <g id="Layer_2" data-name="Layer 2">
      <g id="Layer_1-2" data-name="Layer 1">
        <path
          className="cls-1"
          d="M24,0A24.18,24.18,0,0,0,0,24.2,31.93,31.93,0,0,0,3.7,38.8a47.42,47.42,0,0,0,8,11.2,62.79,62.79,0,0,0,11.6,9.8,1.42,1.42,0,0,0,.6.2,1.42,1.42,0,0,0,.6-.2A62.79,62.79,0,0,0,36.1,50a47.42,47.42,0,0,0,8-11.2A29.37,29.37,0,0,0,48,24.2,24.18,24.18,0,0,0,24,0ZM34.6,48.3A58.7,58.7,0,0,1,24,57.4a66.05,66.05,0,0,1-10.5-9C8.4,43,2.4,34.4,2.4,24.3A21.75,21.75,0,0,1,24,2.5,21.75,21.75,0,0,1,45.6,24.3C45.6,34.4,39.6,42.9,34.6,48.3ZM24,14.2a9.6,9.6,0,1,0,9.6,9.6A9.6,9.6,0,0,0,24,14.2ZM24,31a7.2,7.2,0,1,1,7.2-7.2A7.17,7.17,0,0,1,24,31Z"
        />
      </g>
    </g>
  </svg>
