<svg width="32" height="32" viewBox="0 0 249 249" fill="none" stroke="#323d43" xmlns="http://www.w3.org/2000/svg">
<path d="M176.61 243.65C168.906 243.65 161.298 242.311 153.833 239.583C120.959 227.668 90.4775 208.192 65.6426 183.357C40.8076 158.522 21.332 128.041 9.41699 95.167C5.58887 84.5918 4.44043 73.7295 6.06738 62.7715C7.55078 52.5313 11.5225 42.5781 17.5518 34.0127C23.5811 25.3994 31.6201 18.2217 40.8076 13.293C50.5693 8.0293 61.2881 5.34961 72.5811 5.34961C76.0742 5.34961 79.1367 7.79004 79.8545 11.2354L91.5303 65.7861C92.0566 68.2744 91.291 70.8105 89.5205 72.6289L69.5664 92.583C88.4199 130.051 118.997 160.628 156.417 179.434L176.371 159.479C178.142 157.709 180.726 156.943 183.214 157.47L237.765 169.146C241.21 169.863 243.65 172.926 243.65 176.419C243.65 187.712 240.971 198.383 235.707 208.192C230.778 217.38 223.601 225.419 214.987 231.448C206.422 237.478 196.469 241.401 186.229 242.933C183.022 243.411 179.816 243.65 176.61 243.65ZM66.5996 20.5664C51.7178 22.1934 38.5107 30.041 29.7539 42.5303C19.8965 56.5986 17.5996 73.9209 23.4375 90.0469C46.4062 153.211 95.7891 202.594 158.953 225.563C175.079 231.4 192.401 229.104 206.47 219.246C219.007 210.489 226.807 197.234 228.434 182.353L184.075 172.83L163.212 193.693C161.011 195.895 157.613 196.517 154.79 195.177C110.479 174.361 74.6387 138.521 53.8232 94.21C52.4834 91.3867 53.0576 87.9893 55.3066 85.7881L76.1699 64.9248L66.5996 20.5664Z" fill="#323D43" stroke="#323D43" stroke-width="9" stroke-miterlimit="10"/>
</svg>
