<svg width="300" height="92" viewBox="0 0 300 92" fill="none" xmlns="http://www.w3.org/2000/svg">
<g clip-path="url(#clip0)">
<path d="M102.191 40.5428V54.1525H99.19V40.5428H93.7985V38.0553H107.581V40.5428H102.191" fill="#C1A573"/>
<path d="M110.425 54.1525V40.7381H112.925V46.5535H120.278V40.7381H122.779V54.1525H120.278V48.6641H112.925V54.1525H110.425" fill="#C1A573"/>
<path d="M137.294 40.7381V42.8681H129.39V46.4185H136.489V48.434H129.39V52.0229H137.549V54.1525H126.889V40.7381H137.294Z" fill="#C1A573"/>
<path d="M146.537 40.174C145.664 40.174 144.948 40.3354 144.388 40.6578C143.829 40.9805 143.55 41.4679 143.55 42.1197C143.55 42.7726 143.829 43.2716 144.388 43.6166C144.948 43.9626 146.138 44.3353 147.961 44.7341C149.783 45.1334 151.156 45.6933 152.08 46.415C153.004 47.137 153.466 48.1996 153.466 49.6042C153.466 51.0098 152.882 52.1499 151.712 53.0246C150.542 53.8998 149.008 54.3372 147.11 54.3372C144.329 54.3372 141.862 53.4705 139.709 51.7349L141.591 49.6855C143.388 51.0979 145.253 51.8037 147.186 51.8037C148.152 51.8037 148.919 51.6161 149.487 51.2398C150.054 50.8637 150.339 50.3652 150.339 49.7431C150.339 49.1211 150.072 48.6376 149.537 48.2926C149.003 47.9471 148.083 47.6325 146.779 47.3479C145.473 47.0634 144.482 46.8026 143.803 46.565C143.126 46.3273 142.523 46.0157 141.999 45.6324C140.947 44.9112 140.422 43.8054 140.422 42.3156C140.422 40.8263 141.019 39.6785 142.214 38.873C143.409 38.0668 144.888 37.6641 146.652 37.6641C147.787 37.6641 148.915 37.8326 150.034 38.1698C151.152 38.5081 152.119 38.9845 152.932 39.5982L151.33 41.6486C150.805 41.2191 150.093 40.8653 149.195 40.589C148.295 40.312 147.41 40.174 146.537 40.174Z" fill="#29353D"/>
<path d="M165.266 49.0091L162.574 43.4827L159.883 49.0091H165.266ZM158.865 51.1014L157.381 54.1525H154.712L161.239 40.7381H163.908L170.434 54.1525H167.766L166.281 51.1014H158.865" fill="#29353D"/>
<path d="M172.49 40.7381H174.991V54.1525H172.49V40.7381Z" fill="#29353D"/>
<path d="M179.101 54.1525V40.7381H181.602V52.0038H188.363V54.1525H179.101" fill="#29353D"/>
<path d="M193.596 54.1525H191.097V40.7381H194.993L199.465 49.1633L203.937 40.7381H207.814V54.1525H205.315V43.675L200.144 52.9824H198.745L193.596 43.675V54.1525" fill="#29353D"/>
<path d="M220.422 49.0091L217.732 43.4827L215.039 49.0091H220.422ZM214.022 51.1014L212.539 54.1525H209.869L216.396 40.7381H219.066L225.594 54.1525H222.924L221.439 51.1014H214.022" fill="#29353D"/>
<path d="M232.13 42.5037C231.402 42.5037 230.805 42.638 230.339 42.9064C229.874 43.1753 229.64 43.582 229.64 44.1253C229.64 44.6698 229.874 45.0852 230.339 45.3737C230.805 45.6604 231.797 45.9717 233.316 46.304C234.835 46.6366 235.979 47.1035 236.749 47.705C237.519 48.3064 237.904 49.1927 237.904 50.3629C237.904 51.5337 237.416 52.4834 236.443 53.2132C235.466 53.9421 234.189 54.306 232.606 54.306C230.288 54.306 228.235 53.5848 226.441 52.1377L228.009 50.4298C229.505 51.6075 231.059 52.1961 232.67 52.1961C233.474 52.1961 234.115 52.0391 234.588 51.7257C235.06 51.4125 235.298 50.9964 235.298 50.4783C235.298 49.9596 235.075 49.5569 234.628 49.2684C234.185 48.9815 233.418 48.7184 232.331 48.4825C231.244 48.2458 230.417 48.0288 229.851 47.8294C229.286 47.6313 228.785 47.3717 228.347 47.0527C227.47 46.4513 227.033 45.53 227.033 44.2882C227.033 43.0475 227.531 42.0915 228.527 41.4199C229.523 40.7483 230.756 40.4124 232.226 40.4124C233.171 40.4124 234.11 40.5528 235.043 40.8344C235.976 41.116 236.781 41.5127 237.458 42.0246L236.124 43.7318C235.685 43.3739 235.094 43.08 234.344 42.8492C233.594 42.6194 232.856 42.5037 232.13 42.5037Z" fill="#29353D"/>
<path d="M246.591 42.8111V54.1525H244.091V42.8111H239.599V40.7381H251.084V42.8111H246.591Z" fill="#29353D"/>
<path d="M264.199 40.7381V42.8681H256.297V46.4185H263.396V48.434H256.297V52.0229H264.456V54.1525H253.797V40.7381H264.199" fill="#29353D"/>
<path d="M276.151 46.9943C276.66 46.5985 276.915 45.9614 276.915 45.0851C276.915 44.2095 276.652 43.6074 276.131 43.2815C275.608 42.9551 274.675 42.7912 273.333 42.7912H270.155V47.5897H273.27C274.681 47.5897 275.642 47.3919 276.151 46.9943V46.9943ZM279.478 45.0953C279.478 47.3082 278.412 48.7022 276.28 49.278L280.157 54.1525H276.978L273.438 49.6427H270.155V54.1525H267.653V40.7381H273.162C275.424 40.7381 277.042 41.0841 278.016 41.7748C278.99 42.4654 279.478 43.5725 279.478 45.0953" fill="#29353D"/>
<path d="M282.694 53.912C282.421 53.6575 282.284 53.3523 282.284 52.9951C282.284 52.6397 282.421 52.3362 282.694 52.0892C282.967 51.8418 283.302 51.7176 283.696 51.7176C284.089 51.7176 284.427 51.8418 284.707 52.0892C284.986 52.3362 285.126 52.6397 285.126 52.9951C285.126 53.3523 284.986 53.6575 284.707 53.912C284.427 54.1641 284.089 54.291 283.696 54.291C283.302 54.291 282.967 54.1641 282.694 53.912Z" fill="#C1A573"/>
<path d="M295.138 51.4061C295.138 52.2819 294.789 52.9812 294.089 53.5051C293.39 54.029 292.493 54.291 291.4 54.291C290.662 54.291 289.895 54.1698 289.101 53.9294C288.307 53.687 287.604 53.347 286.995 52.9092L288.023 51.4061C289.206 52.2134 290.352 52.6161 291.458 52.6161C291.94 52.6161 292.323 52.515 292.602 52.3138C292.882 52.1123 293.021 51.8561 293.021 51.5445C293.021 51.0848 292.349 50.6698 291 50.3016C290.899 50.2671 290.822 50.244 290.771 50.2313C288.659 49.7143 287.604 48.85 287.604 47.6422C287.604 46.7899 287.97 46.1074 288.701 45.5944C289.432 45.0826 290.383 44.8264 291.552 44.8264C292.723 44.8264 293.828 45.1369 294.871 45.7589L294.07 47.1926C293.245 46.6982 292.349 46.4501 291.383 46.4501C290.871 46.4501 290.46 46.5337 290.142 46.7001C289.823 46.8667 289.664 47.1183 289.664 47.4513C289.664 47.7511 289.83 47.97 290.161 48.1077C290.388 48.2114 290.711 48.3099 291.123 48.401C291.536 48.4946 291.903 48.5857 292.222 48.678C292.537 48.7703 292.846 48.8737 293.146 48.9884C293.442 49.1038 293.765 49.2642 294.109 49.4719C294.793 49.8862 295.138 50.5313 295.138 51.4061" fill="#C1A573"/>
<path d="M299.696 54.1525H297.561V44.9649H299.696V54.1525ZM297.695 43.1337C297.426 42.8916 297.293 42.6038 297.293 42.2699C297.293 41.9357 297.426 41.6485 297.695 41.4065C297.962 41.1641 298.278 41.0429 298.646 41.0429C299.016 41.0429 299.333 41.1641 299.601 41.4065C299.868 41.6485 300.002 41.9357 300.002 42.2699C300.002 42.6038 299.868 42.8916 299.601 43.1337C299.333 43.3752 299.016 43.4963 298.646 43.4963C298.278 43.4963 297.962 43.3752 297.695 43.1337" fill="#C1A573"/>
<path d="M96.4508 68.0283V62.0892H97.3973L99.5498 65.0937C100.048 65.7903 100.437 66.416 100.756 67.0234L100.776 67.0156C100.696 66.2216 100.676 65.4983 100.676 64.573V62.0892H101.493V68.0283H100.616L98.4833 65.0146C98.0154 64.3526 97.5663 63.6745 97.2278 63.0316L97.1976 63.0398C97.2473 63.7897 97.2673 64.5034 97.2673 65.4902V68.0283H96.4508" fill="#C1A573"/>
<path d="M119.248 65.5604L118.591 63.8511C118.441 63.4636 118.341 63.1107 118.242 62.7668H118.222C118.122 63.1209 118.012 63.4807 117.883 63.8428L117.225 65.5604H119.248ZM117.046 66.1607L116.348 68.0283H115.451L117.733 62.0892H118.78L121.072 68.0283H120.145L119.428 66.1607H117.046" fill="#C1A573"/>
<path d="M136.574 62.0892H137.442V66.0627C137.442 67.6402 136.565 68.1249 135.409 68.1249C135.09 68.1249 134.701 68.0633 134.482 67.9836L134.612 67.3573C134.791 67.4193 135.05 67.4731 135.339 67.4731C136.116 67.4731 136.574 67.1641 136.574 66.0013V62.0892" fill="#C1A573"/>
<path d="M155.318 65.2445H152.707V67.3844H155.617V68.0283H151.84V62.0892H155.467V62.732H152.707V64.6093H155.318V65.2445" fill="#C1A573"/>
<path d="M175.355 65.4192C175.306 64.5915 175.247 63.5958 175.257 62.855H175.225C174.997 63.5515 174.717 64.2912 174.38 65.1108L173.193 67.9923H172.535L171.449 65.1646C171.13 64.3261 170.861 63.5598 170.671 62.855H170.651C170.632 63.5958 170.582 64.5915 170.522 65.4808L170.342 68.0283H169.516L169.983 62.0892H171.091L172.237 64.9613C172.515 65.6933 172.744 66.3451 172.914 66.9618H172.943C173.114 66.3622 173.351 65.7104 173.651 64.9613L174.848 62.0892H175.954L176.373 68.0283H175.526L175.355 65.4192" fill="#C1A573"/>
<path d="M206.591 65.024C206.781 65.0665 207.018 65.0854 207.309 65.0854C208.355 65.0854 208.991 64.6358 208.991 63.8163C208.991 63.0316 208.365 62.6524 207.408 62.6524C207.029 62.6524 206.74 62.6782 206.591 62.7144V65.024ZM205.724 62.1584C206.142 62.0975 206.69 62.0449 207.387 62.0449C208.245 62.0449 208.873 62.221 209.272 62.5388C209.641 62.8201 209.86 63.252 209.86 63.7802C209.86 64.3178 209.68 64.7408 209.341 65.0494C208.883 65.4808 208.137 65.7009 207.288 65.7009C207.029 65.7009 206.791 65.6933 206.591 65.6486V68.0283H205.724V62.1584" fill="#C1A573"/>
<path d="M223.977 62.0892H224.844V67.3844H227.716V68.0283H223.977V62.0892" fill="#C1A573"/>
<path d="M241.774 65.0938C241.774 66.3623 242.552 67.4996 243.914 67.4996C245.292 67.4996 246.069 66.38 246.069 65.0317C246.069 63.8512 245.372 62.6176 243.925 62.6176C242.49 62.6176 241.774 63.7898 241.774 65.0938V65.0938ZM246.985 64.9973C246.985 67.0413 245.581 68.1249 243.866 68.1249C242.092 68.1249 240.845 66.9083 240.845 65.1109C240.845 63.2266 242.171 61.9912 243.965 61.9912C245.8 61.9912 246.985 63.2342 246.985 64.9973" fill="#C1A573"/>
<path d="M262.538 68.0283L260.346 62.0892H261.282L262.327 65.0146C262.618 65.8163 262.867 66.539 263.046 67.2343H263.066C263.257 66.5471 263.534 65.7986 263.833 65.024L264.969 62.0892H265.897L263.494 68.0283H262.538Z" fill="#C1A573"/>
<path d="M280.443 62.0892V68.0283H279.576V62.0892H280.443Z" fill="#C1A573"/>
<path d="M294.91 62.0892H295.777V67.3844H298.647V68.0283H294.91V62.0892" fill="#C1A573"/>
<path d="M38.6279 11.9008C38.6279 11.9008 75.7672 26.8231 74.0029 46.6039C72.2405 66.3857 37.7781 81.9604 37.7781 81.9604C37.7781 81.9604 50.1567 66.1171 49.6249 47.0703C49.0941 28.0231 38.6279 11.9008 38.6279 11.9008Z" fill="#29353D"/>
<path d="M38.6279 11.9007C39.4795 13.2041 40.2649 14.5518 41.0139 15.9166C41.7674 17.2833 42.4571 18.6812 43.1278 20.0898L44.0953 22.2203L44.9984 24.3805C45.562 25.8357 46.1406 27.288 46.62 28.7763C47.1418 30.2505 47.5589 31.7595 47.9934 33.2613C48.1905 34.0186 48.3581 34.7835 48.5427 35.5419L48.8123 36.6862L49.0288 37.8427L49.4458 40.1532L49.7498 42.497C49.8694 43.2796 49.9261 44.0579 49.9742 44.8314C50.0219 45.6155 50.0873 46.3683 50.1244 47.1805L50.1131 49.5423C50.1094 49.9347 50.1184 50.3293 50.1016 50.7217L50.0055 51.901C49.9368 52.6834 49.8879 53.4704 49.8041 54.2517L49.4458 56.5862C49.3487 57.3698 49.1673 58.136 48.9976 58.9057C48.8158 59.6697 48.6905 60.4507 48.4608 61.2047L47.8079 63.4712C47.5845 64.2268 47.3045 64.963 47.0559 65.7062C46.8104 66.4561 46.5263 67.1893 46.2272 67.9138C45.9308 68.6422 45.6629 69.3819 45.325 70.0927C44.9984 70.807 44.6928 71.5338 44.3487 72.2391L43.2953 74.3487L42.1674 76.4189C41.7674 77.0935 41.3869 77.7825 40.9693 78.4497C40.1459 79.7966 39.2866 81.096 38.3251 82.3868L37.4928 81.3286C39.4375 80.4182 41.3746 79.4031 43.2746 78.3574C45.1745 77.3075 47.0474 76.205 48.8864 75.0547C50.7242 73.896 52.5478 72.7201 54.3129 71.46C56.0795 70.2019 57.8159 68.9039 59.4795 67.5203C61.1403 66.1345 62.7498 64.6859 64.2688 63.1526C65.7731 61.6093 67.1905 59.9817 68.4674 58.256C69.7459 56.5308 70.8366 54.6798 71.6993 52.7354C71.9102 52.2472 72.1377 51.7649 72.2913 51.2548C72.4484 50.7551 72.6682 50.2543 72.7752 49.7484C72.8922 49.24 73.0357 48.749 73.1362 48.2256L73.3713 46.6047C73.5545 44.5706 73.3235 42.4079 72.6919 40.4016C72.0685 38.3793 71.0883 36.4593 69.9096 34.6662C68.7143 32.884 67.314 31.2325 65.8174 29.6738C64.3226 28.1104 62.6907 26.6741 61.008 25.3039C57.6336 22.5672 54.008 20.1311 50.2585 17.9048C48.3798 16.8005 46.4688 15.7459 44.5271 14.745C42.5895 13.7453 40.6303 12.7757 38.6279 11.9007V11.9007ZM38.6279 11.9007C42.695 13.5037 46.6435 15.4115 50.4789 17.5208C52.3954 18.5754 54.2783 19.6974 56.1265 20.8821C57.9743 22.0602 59.7755 23.3223 61.5037 24.6818C63.2319 26.0384 64.9128 27.4652 66.4668 29.0345C68.0242 30.5961 69.4889 32.2641 70.7634 34.0876C72.0177 35.9231 73.0836 37.9131 73.7843 40.0542C74.4868 42.2018 74.8148 44.4534 74.6109 46.7796L74.3888 48.401C74.2848 48.9526 74.1347 49.5146 74.0047 50.0697C73.8877 50.6351 73.6673 51.1429 73.5001 51.6829C73.3382 52.2253 73.1043 52.7354 72.8827 53.2501C71.9876 55.3018 70.8561 57.244 69.5445 59.0385C68.2298 60.8317 66.7817 62.5145 65.2473 64.1104C63.7022 65.6932 62.0662 67.1799 60.3829 68.6002C58.6951 70.0212 56.9375 71.3554 55.1518 72.6417C53.3637 73.9226 51.535 75.1516 49.6616 76.3C47.7905 77.454 45.8897 78.557 43.9591 79.6106C42.0234 80.6598 40.0817 81.6626 38.0645 82.5913L35.5636 83.7454L37.2309 81.5331C38.1349 80.3332 39.0062 79.0391 39.811 77.7328C40.2257 77.0859 40.6028 76.4118 40.9986 75.7519L42.1157 73.7276L43.1603 71.6631C43.5042 70.973 43.8068 70.2681 44.1331 69.5663C44.468 68.8713 44.7351 68.1483 45.0298 67.4385C45.325 66.7254 45.6095 66.0088 45.8539 65.2778C46.1016 64.5487 46.3823 63.831 46.6029 63.0924L47.2546 60.8791C47.4859 60.1416 47.6272 59.3849 47.8167 58.6392C47.9955 57.8902 48.1882 57.1436 48.296 56.3808L48.6881 54.1063C48.7844 53.3435 48.846 52.5773 48.9268 51.8122L49.0406 50.6628C49.0641 50.2808 49.0611 49.8966 49.0736 49.5112L49.1241 47.2039C49.1048 46.46 49.05 45.6598 49.0157 44.8892C48.9836 44.1086 48.9418 43.3336 48.8391 42.5745L48.5855 40.2811L48.2094 37.9918L48.0202 36.8459L47.7728 35.7148C47.6053 34.9566 47.4533 34.1982 47.2712 33.4453C46.8752 31.9474 46.5138 30.4395 46.0375 28.963C45.6047 27.4735 45.0746 26.0147 44.5569 24.5524L43.7223 22.3775L42.822 20.228L41.8655 18.1028L40.8505 16.0053C40.1574 14.6132 39.4262 13.2348 38.6279 11.9007" fill="#29353D"/>
<path d="M33.7982 -0.00117563L35.9774 73.5605L32.322 0.0579086L33.7982 -0.00117563Z" fill="#C1A573"/>
<path d="M44.5569 83.6242C44.5569 83.6242 44.8484 83.6371 45.3944 83.6624C45.9389 83.6934 46.7437 83.7187 47.7612 83.8155C48.7775 83.9048 50.0152 84.0142 51.4282 84.2173C52.845 84.4252 54.4373 84.651 56.1914 85.168C56.6331 85.3046 57.0822 85.4511 57.5653 85.6796C57.8077 85.7973 58.0558 85.9277 58.3344 86.1546C58.4728 86.2728 58.6226 86.4124 58.7646 86.6439C58.9074 86.8703 59.0302 87.256 58.9614 87.6331C58.8984 88.013 58.7149 88.2646 58.5651 88.4402C58.41 88.6198 58.2623 88.7361 58.1183 88.8365C57.8342 89.0338 57.5699 89.1656 57.3107 89.2833C56.796 89.5118 56.2941 89.678 55.7872 89.8291C53.7537 90.4029 51.7053 90.84 49.3953 90.9995C47.1208 91.1551 44.8212 91.1461 42.4908 90.9552C40.1625 90.7779 37.8225 90.4684 35.5017 90.0969C33.1843 89.6909 30.883 89.2212 28.6383 88.7008C26.3875 88.1949 24.2037 87.5846 22.0963 86.9901C19.9859 86.3981 17.968 85.7546 16.0679 85.1195C14.1613 84.4968 12.3763 83.8587 10.7388 83.2424C7.45637 82.033 4.77451 80.8903 2.90782 80.0655C1.04113 79.239 0 78.7095 0 78.7095C0 78.7095 4.49801 79.873 11.2472 81.6229C12.9307 82.049 14.7544 82.5117 16.6827 83.0019C18.6138 83.4681 20.6472 83.9609 22.7536 84.4714C24.8532 84.9838 27.046 85.4198 29.2566 85.9148C31.4684 86.3965 33.7274 86.8154 35.9881 87.1863C38.2443 87.5846 40.5096 87.9149 42.7359 88.118C44.9575 88.3183 47.1626 88.4792 49.237 88.4134C51.2719 88.3532 53.3957 88.0938 55.2354 87.7093C55.6931 87.6089 56.1376 87.4949 56.5166 87.3571C56.7074 87.2904 56.8798 87.2117 56.9955 87.1461C57.1215 87.0965 57.1146 86.9996 57.0313 87.2867C57.0102 87.4321 57.0668 87.5745 57.0957 87.601L57.0786 87.565C57.0102 87.4865 56.8651 87.3794 56.7074 87.2855C56.3905 87.087 56.0088 86.9121 55.6303 86.7563C54.0895 86.1387 52.5496 85.6944 51.2015 85.3145C49.8437 84.9489 48.6508 84.6327 47.6643 84.3892C45.6884 83.9036 44.5569 83.6242 44.5569 83.6242" fill="#C1A573"/>
<path d="M63.7879 61.2933C65.444 58.5791 68.6771 52.8173 69.6213 47.8226C70.2216 44.6584 69.6875 41.5322 68.9341 39.0788C70.5016 42.2936 71.9427 46.8265 70.6299 51.1244C68.9844 56.5193 65.6993 59.7737 63.7879 61.2933" fill="#E6D3B4"/>
<path d="M66.553 34.4469C66.553 34.4469 70.524 41.0796 69.2608 47.7533C67.9964 54.4261 62.491 62.6517 62.491 62.6517C62.491 62.6517 68.5146 59.3158 70.9825 51.2342C73.4499 43.1512 66.553 34.4469 66.553 34.4469Z" fill="white"/>
</g>
<defs>
<clipPath id="clip0">
<rect width="300" height="91.1078" fill="white"/>
</clipPath>
</defs>
</svg>
