<svg width="300" height="91" viewBox="0 0 300 91" fill="none" xmlns="http://www.w3.org/2000/svg">
<g clip-path="url(#clip0)">
<path d="M38.2718 11.8834C38.2718 11.8834 74.9126 26.6213 73.165 46.0776C71.4175 65.5922 37.4563 80.9126 37.4563 80.9126C37.4563 80.9126 49.6893 65.3009 49.165 46.4854C48.5825 27.7863 38.2718 11.8834 38.2718 11.8834Z" fill="#323D43"/>
<path d="M38.2719 11.8834C42.2913 13.4562 46.1942 15.3203 49.9806 17.4174C51.8447 18.4659 53.7088 19.5727 55.5729 20.7378C57.3787 21.9028 59.1845 23.1261 60.8738 24.4659C62.5632 25.8058 64.2525 27.2038 65.767 28.7766C67.2816 30.2912 68.7379 31.9805 70.0195 33.7863C71.2428 35.5922 72.2913 37.5727 72.9903 39.6698C73.6894 41.7669 73.9806 43.9805 73.8059 46.3106L73.5729 47.8834C73.4564 48.4077 73.3399 48.9902 73.2234 49.5145C73.1069 50.097 72.8738 50.563 72.6991 51.0873C72.5243 51.6116 72.2913 52.1358 72.1165 52.6601C71.2428 54.699 70.136 56.6213 68.8544 58.3689C67.5729 60.1164 66.1166 61.8057 64.602 63.3786C63.0874 64.9514 61.4564 66.4077 59.8253 67.8057C58.136 69.2038 56.4467 70.5436 54.6408 71.7669C52.8933 73.0485 51.0874 74.2135 49.2234 75.3786C47.3593 76.5436 45.4952 77.5922 43.5729 78.6407C41.6505 79.6892 39.7282 80.6795 37.7476 81.5533L35.301 82.7184L36.9321 80.563C37.8059 79.398 38.6797 78.1164 39.4952 76.8349C39.903 76.1941 40.2525 75.5533 40.6602 74.8543L41.767 72.8737L42.8156 70.8349C43.1651 70.1359 43.4564 69.4368 43.7476 68.796C44.0971 68.097 44.3302 67.398 44.6214 66.699C44.9127 65.9999 45.2039 65.3009 45.4369 64.5436C45.67 63.8446 45.9612 63.1456 46.1942 62.3883L46.835 60.2329C47.068 59.5339 47.1845 58.7766 47.4175 58.0193C47.5923 57.2621 47.767 56.563 47.8835 55.8057L48.2913 53.5922C48.4078 52.8349 48.4661 52.0776 48.5243 51.3203L48.6408 50.2135C48.6408 49.864 48.6408 49.4562 48.6991 49.1067L48.7573 46.8349C48.7573 46.0776 48.6991 45.3203 48.6408 44.563C48.5826 43.8058 48.5826 43.0485 48.4661 42.2912L48.2331 40.0194L47.8835 37.7475L47.7088 36.6407L47.4758 35.5339C47.301 34.7766 47.1845 34.0194 47.0098 33.3203C46.602 31.864 46.2525 30.3494 45.7865 28.8931C45.3787 27.4368 44.8544 25.9805 44.3302 24.5242L43.5146 22.3689L42.6408 20.2718L41.7088 18.1747L40.7185 16.1359C39.7865 14.563 39.0292 13.2232 38.2719 11.8834ZM38.2719 11.8834C39.0874 13.165 39.903 14.5048 40.602 15.8446C41.3593 17.1844 42.0001 18.5825 42.6991 19.9805L43.6311 22.0776L44.5049 24.2329C45.0874 25.6893 45.6117 27.0873 46.0777 28.5436C46.602 29.9999 47.0098 31.4562 47.4175 32.9708C47.5923 33.7281 47.767 34.4854 47.9418 35.2426L48.2331 36.3494L48.4661 37.5145L48.8738 39.7863L49.1651 42.1164C49.2816 42.8737 49.3399 43.631 49.3981 44.4465C49.4564 45.2038 49.5146 45.9611 49.5729 46.7766V49.1067C49.5729 49.5145 49.5729 49.864 49.5729 50.2718L49.4564 51.4368C49.3981 52.1941 49.3399 53.0096 49.2816 53.7669L48.9321 56.097C48.8156 56.8543 48.6408 57.6116 48.4661 58.3689C48.2913 59.1261 48.1748 59.8834 47.9418 60.6407L47.301 62.8543C47.068 63.6116 46.7767 64.3106 46.5437 65.0679C46.3107 65.8252 46.0195 66.5242 45.7282 67.2232C45.4369 67.9223 45.1457 68.6795 44.8544 69.3786C44.5049 70.0776 44.2136 70.7766 43.8641 71.4757L42.8156 73.5727L41.7088 75.6116C41.301 76.2523 40.9515 76.9514 40.5437 77.5922C39.7282 78.932 38.9127 80.2135 37.9224 81.4951L37.1068 80.4465C39.0292 79.5727 40.9515 78.5242 42.8156 77.5339C44.6797 76.4854 46.5437 75.4368 48.3496 74.2718C50.1554 73.1067 51.9612 71.9417 53.7088 70.7184C55.4564 69.4951 57.1457 68.2135 58.7767 66.8155C60.4078 65.4757 61.9806 64.0193 63.4952 62.5048C64.9515 60.9902 66.3496 59.3592 67.6311 57.6698C68.9127 55.9805 69.9612 54.1164 70.835 52.2524C71.068 51.7863 71.2428 51.3203 71.4175 50.7961C71.5923 50.33 71.767 49.8058 71.8835 49.3397C72 48.8155 72.1166 48.3494 72.2331 47.8252L72.4661 46.2524C72.6408 44.2718 72.4078 42.1164 71.8253 40.1358C71.1845 38.1553 70.2525 36.2329 69.0874 34.4854C67.9224 32.7378 66.5243 31.1067 65.068 29.5922C63.6117 28.0776 61.9806 26.6213 60.3496 25.2815C57.0292 22.6019 53.4758 20.1553 49.7476 17.9999C47.8835 16.8931 46.0195 15.8446 44.0971 14.9126C42.1748 13.6893 40.2525 12.7572 38.2719 11.8834Z" fill="#323D43"/>
<path d="M33.4951 0.174683L35.6505 72.6989L32.0388 0.23293L33.4951 0.174683Z" fill="#CDB083"/>
<path d="M44.0971 82.6019C44.0971 82.6019 44.3883 82.6019 44.9126 82.6602C45.4369 82.7184 46.2524 82.7184 47.2427 82.8349C48.233 82.9514 49.4563 83.0097 50.8543 83.2427C52.2524 83.4757 53.8252 83.6505 55.5728 84.1747C55.9805 84.2912 56.4466 84.466 56.9126 84.699C57.1456 84.8155 57.3786 84.932 57.6699 85.165C57.7864 85.2815 57.9611 85.398 58.0776 85.631C58.1941 85.8641 58.3106 86.2136 58.2524 86.6213C58.1941 86.9709 58.0194 87.2621 57.8446 87.4369C57.6699 87.6116 57.5534 87.7281 57.3786 87.8446C57.0873 88.0194 56.8543 88.1942 56.5631 88.3107C56.0388 88.5437 55.5728 88.7184 55.0485 88.8349C53.0679 89.4175 51.0291 89.8252 48.7572 90C46.5437 90.1747 44.2718 90.1165 41.9417 89.9417C39.6699 89.767 37.3398 89.4757 35.0679 89.0679C32.7961 88.6602 30.5242 88.1941 28.3107 87.6699C26.0971 87.1456 23.9417 86.5631 21.8446 85.9806C19.7475 85.398 17.767 84.7573 15.9029 84.1165C14.0388 83.4757 12.2912 82.8932 10.6602 82.2524C7.39803 81.0874 4.77667 79.9223 2.91259 79.1068C1.04852 78.2912 0.0582275 77.767 0.0582275 77.767C0.0582275 77.767 4.48541 78.932 11.1262 80.6213C12.7573 81.0291 14.5631 81.4951 16.4854 81.9611C18.4077 82.4272 20.3883 82.8932 22.4854 83.4175C24.5825 83.9417 26.7378 84.3495 28.8932 84.8155C31.0485 85.2815 33.3204 85.6893 35.534 86.0971C37.7475 86.5048 40.0194 86.7961 42.1747 87.0291C44.3883 87.2039 46.5437 87.3786 48.5825 87.3204C50.5631 87.2621 52.6602 87.0291 54.5242 86.6213C54.9903 86.5048 55.398 86.3883 55.8058 86.2718C55.9806 86.2136 56.1553 86.1553 56.2718 86.0388C56.3883 85.9806 56.3883 85.9223 56.3301 86.1553C56.3301 86.2718 56.3883 86.4466 56.3883 86.4466V86.3883C56.3301 86.3301 56.1553 86.2136 56.0388 86.0971C55.7475 85.9223 55.3398 85.7475 54.9903 85.5728C53.4757 84.9903 51.9611 84.5242 50.6213 84.1747C49.2815 83.8252 48.1165 83.4757 47.1262 83.2427C45.2038 82.8932 44.0971 82.6019 44.0971 82.6019Z" fill="#CDB083"/>
<path d="M63.0874 60.5825C64.7185 57.9029 67.9224 52.2524 68.8544 47.3009C69.4369 44.1553 68.9126 41.1262 68.1554 38.6796C69.7282 41.8252 71.1262 46.3106 69.8447 50.5631C68.2136 55.864 64.9515 59.0679 63.0874 60.5825Z" fill="#ECDBC5"/>
<path d="M65.767 34.136C65.767 34.136 69.6699 40.6603 68.4466 47.2428C67.2233 53.8253 61.7476 61.9224 61.7476 61.9224C61.7476 61.9224 67.6893 58.6603 70.1359 50.6797C72.5825 42.6991 65.767 34.136 65.767 34.136Z" fill="white"/>
<path d="M99.1456 39.3787V53.301H96.1165V39.3787H90.5825V36.8156H104.68V39.3787H99.1456Z" fill="#CDB083"/>
<path d="M107.592 53.301V39.6117H110.155V45.5535H117.67V39.6117H120.233V53.301H117.67V47.7088H110.155V53.301H107.592Z" fill="#CDB083"/>
<path d="M135.087 39.5534V41.7087H126.99V45.3204H134.272V47.3592H126.99V51.0291H135.32V53.1844H124.427V39.4951H135.087V39.5534Z" fill="#CDB083"/>
<path d="M144.524 38.9709C143.65 38.9709 142.893 39.1457 142.311 39.4369C141.728 39.7865 141.437 40.2525 141.437 40.9515C141.437 41.5923 141.728 42.1165 142.311 42.4661C142.893 42.8156 144.116 43.2233 145.981 43.6311C147.845 44.0389 149.243 44.6214 150.175 45.3787C151.107 46.136 151.573 47.1845 151.573 48.6408C151.573 50.0971 150.99 51.2622 149.767 52.136C148.544 53.0098 147.029 53.4758 145.049 53.4758C142.194 53.4758 139.689 52.602 137.476 50.7962L139.398 48.6991C141.262 50.1554 143.126 50.8544 145.107 50.8544C146.097 50.8544 146.854 50.6796 147.437 50.2719C148.019 49.8641 148.311 49.3981 148.311 48.7573C148.311 48.1166 148.019 47.6505 147.495 47.301C146.971 46.9515 145.981 46.602 144.699 46.3107C143.359 46.0195 142.369 45.7282 141.67 45.4952C140.971 45.2622 140.388 44.9127 139.806 44.5631C138.757 43.8059 138.175 42.6991 138.175 41.1845C138.175 39.67 138.757 38.5049 139.981 37.6894C141.204 36.8738 142.718 36.4661 144.524 36.4661C145.689 36.4661 146.854 36.6408 147.961 36.9903C149.126 37.3398 150.116 37.8059 150.932 38.4466L149.301 40.5437C148.777 40.0777 148.019 39.7282 147.146 39.4369C146.33 39.1457 145.398 38.9709 144.524 38.9709Z" fill="#323D43"/>
<path d="M157.107 50.1554L155.592 53.301H152.854L159.553 39.6117H162.291L168.99 53.301H166.252L164.738 50.1554H157.107ZM163.689 48L160.951 42.3496L158.214 48H163.689Z" fill="#323D43"/>
<path d="M171.029 39.5533H173.592V53.2427H171.029V39.5533Z" fill="#323D43"/>
<path d="M177.786 53.301V39.6117H180.349V51.1457H187.282V53.3593H177.786V53.301Z" fill="#323D43"/>
<path d="M192.641 53.301H190.078V39.6117H194.039L198.582 48.2331L203.126 39.6117H207.087V53.301H204.524V42.5826L199.223 52.0777H197.767L192.524 42.5826V53.301H192.641Z" fill="#323D43"/>
<path d="M213.495 50.1554L211.981 53.301H209.243L215.942 39.6117H218.68L225.379 53.301H222.641L221.126 50.1554H213.495ZM220.078 48L217.34 42.3496L214.602 48H220.078Z" fill="#323D43"/>
<path d="M232.019 41.3592C231.262 41.3592 230.68 41.4757 230.214 41.767C229.748 42.0582 229.514 42.466 229.514 42.9903C229.514 43.5728 229.748 43.9806 230.214 44.2718C230.68 44.5631 231.728 44.8544 233.243 45.2039C234.815 45.5534 235.981 46.0194 236.738 46.6602C237.495 47.301 237.903 48.1747 237.903 49.398C237.903 50.6213 237.379 51.5534 236.388 52.3107C235.398 53.0679 234.058 53.4175 232.485 53.4175C230.097 53.4175 228 52.6602 226.194 51.2039L227.825 49.4563C229.34 50.6796 230.971 51.2621 232.602 51.2621C233.417 51.2621 234.058 51.0874 234.582 50.7961C235.048 50.4466 235.281 50.0388 235.281 49.5145C235.281 48.9903 235.048 48.5825 234.582 48.2912C234.116 48 233.359 47.7087 232.252 47.4757C231.146 47.2427 230.272 47.0097 229.689 46.8349C229.107 46.6602 228.582 46.3689 228.175 46.0194C227.301 45.3786 226.835 44.4466 226.835 43.165C226.835 41.8835 227.359 40.8932 228.349 40.2524C229.34 39.5534 230.621 39.2039 232.136 39.2039C233.126 39.2039 234.058 39.3204 234.99 39.6116C235.922 39.9029 236.796 40.3107 237.437 40.8349L236.097 42.5825C235.631 42.233 235.048 41.9417 234.291 41.6505C233.534 41.4757 232.777 41.3592 232.019 41.3592Z" fill="#323D43"/>
<path d="M246.816 41.7088V53.301H244.252V41.7088H239.651V39.6117H251.417V41.7088H246.816Z" fill="#323D43"/>
<path d="M264.815 39.5534V41.7087H256.718V45.3204H264V47.3592H256.718V51.0291H265.048V53.1844H254.155V39.4951H264.815V39.5534Z" fill="#323D43"/>
<path d="M280.485 44.0389C280.485 46.3107 279.379 47.7088 277.223 48.2913L281.184 53.301H277.922L274.311 48.6991H270.932V53.301H268.369V39.6117H274.019C276.349 39.6117 277.981 39.9612 278.971 40.6602C279.961 41.3593 280.485 42.4661 280.485 44.0389ZM277.048 45.9612C277.573 45.5534 277.806 44.9127 277.806 43.9806C277.806 43.1068 277.515 42.4661 276.99 42.1165C276.466 41.767 275.476 41.5923 274.136 41.5923H270.874V46.4855H274.078C275.534 46.602 276.524 46.369 277.048 45.9612Z" fill="#323D43"/>
<path d="M283.748 53.0098C283.456 52.7768 283.34 52.4272 283.34 52.0777C283.34 51.7282 283.456 51.3787 283.748 51.1457C284.039 50.9127 284.388 50.7379 284.796 50.7379C285.204 50.7379 285.553 50.8544 285.845 51.1457C286.136 51.3787 286.252 51.7282 286.252 52.0777C286.252 52.4272 286.136 52.7768 285.845 53.0098C285.553 53.2428 285.204 53.4175 284.796 53.4175C284.388 53.4175 284.039 53.301 283.748 53.0098Z" fill="#CDB083"/>
<path d="M288.524 42C288.233 41.767 288.116 41.4758 288.116 41.1263C288.116 40.7767 288.233 40.4855 288.524 40.2525C288.815 40.0195 289.107 39.903 289.456 39.903C289.806 39.903 290.155 40.0195 290.388 40.2525C290.68 40.4855 290.796 40.7767 290.796 41.1263C290.796 41.4758 290.68 41.767 290.388 42C290.097 42.2331 289.806 42.3496 289.456 42.3496C289.107 42.4078 288.815 42.2913 288.524 42ZM290.563 53.301H288.408V43.8641H290.563V53.301Z" fill="#CDB083"/>
<path d="M296.33 45.4952V50.2719C296.33 50.738 296.447 51.0875 296.738 51.3205C296.971 51.6118 297.379 51.7282 297.786 51.7282C298.252 51.7282 298.66 51.4953 299.126 51.0875L300 52.4855C299.243 53.1263 298.427 53.4176 297.495 53.4176C296.563 53.4176 295.806 53.1263 295.165 52.5438C294.524 51.9613 294.175 51.1457 294.175 50.1554V45.437H292.893V43.8642H294.175V40.8933H296.33V43.8642H299.01V45.437H296.33V45.4952Z" fill="#CDB083"/>
<path d="M92.7379 67.4562V61.3397H93.7282L95.9418 64.4271C96.4661 65.1261 96.8738 65.7669 97.1651 66.4077C97.1068 65.5922 97.0486 64.8349 97.0486 63.9028V61.3397H97.8641V67.4562H96.9903L94.835 64.3689C94.369 63.6698 93.903 62.9708 93.5534 62.33H93.4952C93.5534 63.0873 93.5534 63.8446 93.5534 64.8349V67.4562H92.7379Z" fill="#CDB083"/>
<path d="M113.476 64.369C113.476 66.4661 112.019 67.5729 110.272 67.5729C108.466 67.5729 107.184 66.3496 107.184 64.4855C107.184 62.5632 108.524 61.2816 110.388 61.2816C112.252 61.2816 113.476 62.5632 113.476 64.369ZM108.175 64.4855C108.175 65.7671 108.99 66.9321 110.388 66.9321C111.786 66.9321 112.602 65.7671 112.602 64.4272C112.602 63.2039 111.903 61.9224 110.388 61.9224C108.874 61.9224 108.175 63.1457 108.175 64.4855Z" fill="#CDB083"/>
<path d="M122.796 61.3981H123.67V66.8156H126.583V67.4563H122.738V61.3981H122.796Z" fill="#CDB083"/>
<path d="M139.282 64.6019H136.602V66.8155H139.573V67.4562H135.728V61.3397H139.456V61.9805H136.66V63.9028H139.34V64.6019H139.282Z" fill="#CDB083"/>
<path d="M154.136 67.2232C153.728 67.3397 152.971 67.5727 152.039 67.5727C150.99 67.5727 150.117 67.3397 149.476 66.7572C148.893 66.2329 148.544 65.4174 148.544 64.4854C148.544 62.6795 149.942 61.3397 152.272 61.3397C153.087 61.3397 153.67 61.5145 153.961 61.631L153.728 62.2718C153.379 62.1553 152.913 61.9805 152.214 61.9805C150.524 61.9805 149.476 62.9125 149.476 64.4271C149.476 65.9999 150.524 66.8737 152.097 66.8737C152.68 66.8737 153.087 66.8155 153.262 66.6989V64.8931H151.864V64.2523H154.136V67.2232V67.2232Z" fill="#CDB083"/>
<path d="M168.874 67.2232C168.466 67.3397 167.709 67.5727 166.777 67.5727C165.728 67.5727 164.854 67.3397 164.214 66.7572C163.631 66.2329 163.281 65.4174 163.281 64.4854C163.281 62.6795 164.68 61.3397 167.01 61.3397C167.825 61.3397 168.408 61.5145 168.699 61.631L168.466 62.2718C168.116 62.1553 167.65 61.9805 166.951 61.9805C165.262 61.9805 164.214 62.9125 164.214 64.4271C164.214 65.9999 165.262 66.8737 166.893 66.8737C167.476 66.8737 167.883 66.8155 168.058 66.6989V64.8931H166.602V64.2523H168.874V67.2232Z" fill="#CDB083"/>
<path d="M179.301 61.3981V67.5146H178.427V61.3981H179.301Z" fill="#CDB083"/>
<path d="M194.854 64.369C194.854 66.4661 193.398 67.5729 191.65 67.5729C189.845 67.5729 188.563 66.3496 188.563 64.4855C188.563 62.5632 189.903 61.2816 191.767 61.2816C193.631 61.2816 194.854 62.5632 194.854 64.369ZM189.553 64.4855C189.553 65.7671 190.369 66.9321 191.767 66.9321C193.165 66.9321 193.981 65.7671 193.981 64.4272C193.981 63.2039 193.282 61.9224 191.767 61.9224C190.252 61.9224 189.553 63.1457 189.553 64.4855Z" fill="#CDB083"/>
<path d="M224.097 61.4562C224.505 61.398 225.087 61.3397 225.728 61.3397C226.602 61.3397 227.184 61.4562 227.592 61.8058C227.942 62.0388 228.175 62.3883 228.175 62.8543C228.175 63.4368 227.709 63.9611 227.01 64.1941C227.65 64.3689 228.408 64.8349 228.408 65.7087C228.408 66.2329 228.175 66.6407 227.825 66.932C227.359 67.3397 226.544 67.5145 225.437 67.5145C224.796 67.5145 224.33 67.4562 224.039 67.4562V61.4562H224.097ZM224.971 63.9611H225.786C226.718 63.9611 227.301 63.5533 227.301 62.9125C227.301 62.2135 226.66 61.9222 225.786 61.9222C225.379 61.9222 225.146 61.9222 225.029 61.9805V63.9611H224.971ZM224.971 66.8737C225.146 66.8737 225.379 66.932 225.728 66.932C226.66 66.932 227.476 66.6407 227.476 65.7669C227.476 64.9514 226.66 64.6019 225.728 64.6019H224.971V66.8737Z" fill="#CDB083"/>
<path d="M238.893 65.5923L238.194 67.5146H237.262L239.592 61.3981H240.641L242.971 67.5146H242.039L241.282 65.5923H238.893ZM241.107 64.9515L240.408 63.2039C240.233 62.7961 240.175 62.4466 240.058 62.0971C239.942 62.4466 239.825 62.8544 239.709 63.2039L239.01 64.9515H241.107Z" fill="#CDB083"/>
<path d="M252.175 61.4562C252.641 61.398 253.282 61.3397 253.864 61.3397C254.796 61.3397 255.437 61.5145 255.845 61.864C256.194 62.1553 256.369 62.563 256.369 63.0291C256.369 63.8446 255.786 64.3689 255.087 64.6019C255.612 64.7766 255.961 65.1844 256.078 65.8252C256.311 66.699 256.485 67.2815 256.602 67.5145H255.728C255.612 67.3397 255.437 66.8155 255.262 66.0582C255.087 65.2426 254.68 64.8931 253.864 64.8931H253.049V67.5145H252.175V61.4562V61.4562ZM253.049 64.2523H253.981C254.913 64.2523 255.553 63.7863 255.553 63.0873C255.553 62.2718 254.913 61.9805 253.981 61.9222C253.573 61.9222 253.223 61.9805 253.107 61.9805V64.2523H253.049Z" fill="#CDB083"/>
<path d="M270.641 67.2816C270.291 67.3981 269.65 67.5729 268.835 67.5729C266.913 67.5729 265.456 66.4661 265.456 64.4855C265.456 62.5632 266.913 61.2816 269.068 61.2816C269.942 61.2816 270.466 61.4564 270.699 61.5729L270.466 62.2136C270.116 62.0389 269.65 61.9806 269.068 61.9806C267.437 61.9806 266.388 62.9127 266.388 64.4855C266.388 66.0001 267.379 66.9321 269.01 66.9321C269.534 66.9321 270.116 66.8156 270.466 66.6991L270.641 67.2816Z" fill="#CDB083"/>
<path d="M280.777 61.3981V63.9612H284.097V61.3981H284.971V67.5146H284.097V64.6602H280.777V67.5146H279.903V61.3981H280.777Z" fill="#CDB083"/>
<path d="M298.252 64.6602H295.573V66.8738H298.544V67.5146H294.699V61.3981H298.427V62.0389H295.631V63.9612H298.311V64.6602H298.252Z" fill="#CDB083"/>
</g>
<defs>
<clipPath id="clip0">
<rect width="300" height="90.2913" fill="white"/>
</clipPath>
</defs>
</svg>
