<?xml version="1.0" encoding="utf-8"?>
<!-- Generator: Adobe Illustrator 24.0.2, SVG Export Plug-In . SVG Version: 6.00 Build 0)  -->
<svg version="1.1" id="Capa_1" xmlns="http://www.w3.org/2000/svg" xmlns:xlink="http://www.w3.org/1999/xlink" x="0px" y="0px"
	 viewBox="0 0 512 512" style="enable-background:new 0 0 512 512;" xml:space="preserve">
<style type="text/css">
	.st0{fill:#323D43;}
</style>
<g>
	<g>
		<path class="st0" d="M256,0C150.1,0,64,86.1,64,192c0,133.1,173.3,307.9,180.7,315.3c3.1,3.1,7.2,4.7,11.3,4.7
			c4.1,0,8.2-1.6,11.3-4.7C274.7,499.9,448,325.1,448,192C448,86.1,361.9,0,256,0z M256,472.9C217.8,432,96,293.7,96,192
			c0-88.2,71.8-160,160-160s160,71.8,160,160C416,293.6,294.2,432,256,472.9z"/>
	</g>
</g>
<g>
	<g>
		<path class="st0" d="M256,96c-52.9,0-96,43.1-96,96s43.1,96,96,96s96-43.1,96-96S308.9,96,256,96z M256,256c-35.3,0-64-28.7-64-64
			s28.7-64,64-64s64,28.7,64,64S291.3,256,256,256z"/>
	</g>
</g>
</svg>
