<?xml version="1.0" encoding="utf-8"?>
<!-- Generator: Adobe Illustrator 24.0.2, SVG Export Plug-In . SVG Version: 6.00 Build 0)  -->
<svg version="1.1" id="_x31_" xmlns="http://www.w3.org/2000/svg" xmlns:xlink="http://www.w3.org/1999/xlink" x="0px" y="0px"
	 viewBox="0 0 512 512" style="enable-background:new 0 0 512 512;" xml:space="preserve">
<style type="text/css">
	.st0{fill:none;stroke:#CCAF82;stroke-width:17;stroke-miterlimit:10;}
	.st1{fill-rule:evenodd;clip-rule:evenodd;fill:#CCAF82;}
	.st2{fill:#CCAF82;}
</style>
<path class="st0" d="M259.5,10.3c-57.1,35.6-95.2,78.1-115.7,130.3c-20.4,52.1-15.3,118.9-6.1,180c9,61.1,28.9,120.9,60.1,183.1
	h124.8c30.3-62,49.7-121.8,58.6-183.1c8.9-61.4,13.9-128.8-6-181C354.5,87.4,316.8,45.1,259.5,10.3z"/>
<path class="st1" d="M272.1,426.7h-22.4V114h22.4V426.7z"/>
<g>
	<g>
		<path class="st2" d="M255.1,70.2L203.3,122c-1.5,1.5-2.3,3.4-2.3,5.5c0,2.1,0.8,4.1,2.3,5.5l4.7,4.7c1.5,1.5,3.5,2.3,5.6,2.3
			c2.1,0,4.1-0.8,5.6-2.3l30.3-30.2l0.2,95.8c0,4.3,3.4,7.7,7.7,7.7l6.7,0c4.3,0,8.1-3.4,8.1-7.7l-0.2-96.1l30.6,30.4
			c1.5,1.5,3.4,2.3,5.5,2.3c2.1,0,4.1-0.8,5.5-2.3l4.7-4.7c1.5-1.5,2.3-3.4,2.3-5.5c0-2.1-0.8-4.1-2.3-5.5l-52-51.6
			c-1.5-1.5-3.5-2.3-5.6-2.3C258.5,67.9,256.5,68.7,255.1,70.2z"/>
	</g>
</g>
<g>
	<g>
		<path class="st2" d="M266.4,470.1l51.6-51.6c1.5-1.5,2.3-3.4,2.3-5.5c0-2.1-0.8-4.1-2.3-5.5l-4.7-4.7c-1.5-1.5-3.4-2.3-5.5-2.3
			c-2.1,0-4.1,0.8-5.6,2.3L272,432.8l0-95.6c0-4.3-3.4-7.7-7.7-7.7l-6.6,0c-4.3,0-8,3.4-8,7.7l0,95.9l-30.3-30.4
			c-1.5-1.5-3.4-2.3-5.5-2.3c-2.1,0-4,0.8-5.5,2.3l-4.7,4.7c-1.5,1.5-2.3,3.4-2.3,5.5c0,2.1,0.8,4.1,2.3,5.5l51.6,51.6
			c1.5,1.5,3.4,2.3,5.5,2.3C262.9,472.3,264.9,471.5,266.4,470.1z"/>
	</g>
</g>
</svg>
