<?xml version="1.0" encoding="utf-8"?>
<!-- Generator: Adobe Illustrator 24.0.2, SVG Export Plug-In . SVG Version: 6.00 Build 0)  -->
<svg version="1.1" id="Layer_1" xmlns="http://www.w3.org/2000/svg" xmlns:xlink="http://www.w3.org/1999/xlink" x="0px" y="0px"
	 viewBox="0 0 512.1 512.1" style="enable-background:new 0 0 512.1 512.1;" xml:space="preserve">
<style type="text/css">
	.st0{fill:#CCAF82;}
</style>
<g>
	<path class="st0" d="M290.2,367h213.3c5.1,0,8.5-3.4,8.5-8.5c0-225.3-217.6-289.3-219.3-290.1c-2.6,0-6,0-7.7,1.7
		c-2.6,1.7-3.4,4.3-3.4,6.8v281.6C281.7,363.6,285.1,367,290.2,367z M298.7,88.8c41.8,15.4,191.1,83.6,196.3,261.1H298.7V88.8z"/>
	<path class="st0" d="M511.2,389.2c-0.9-3.4-4.3-5.1-7.7-5.1H8.6c-3.4,0-6.8,1.7-7.7,5.1c-1.7,3.4-0.9,6.8,1.7,9.4
		c66.6,73.4,157.9,113.5,255.1,113.5c96.4,0,184.3-39.3,251.7-113.5C512.1,396,512.9,392.6,511.2,389.2z M465.1,418.2h-72.5
		c-5.1,0-8.5,3.4-8.5,8.5s3.4,8.5,8.5,8.5h50.6c-8.6,6.2-17.4,11.8-26.3,17.1h-75.5c-5.1,0-8.5,3.4-8.5,8.5s3.4,8.5,8.5,8.5h41.7
		C344,486.3,301.9,495,257.8,495c-86.2,0-166.4-33.3-228.7-93.9h454.8C477.8,407.1,471.5,412.8,465.1,418.2z"/>
	<path class="st0" d="M187.8,51.3h59.7v307.2c0,5.1,3.4,8.5,8.5,8.5c5.1,0,8.5-3.4,8.5-8.5V42.7V8.6c0-5.1-3.4-8.5-8.5-8.5h-68.3
		c-5.1,0-8.5,3.4-8.5,8.5v34.1C179.3,47.8,182.7,51.3,187.8,51.3z M196.3,17.1h51.2v17.1h-51.2V17.1z"/>
</g>
</svg>
