<?xml version="1.0" encoding="utf-8"?>
<!-- Generator: Adobe Illustrator 24.0.2, SVG Export Plug-In . SVG Version: 6.00 Build 0)  -->
<svg version="1.1" id="Layer_1" xmlns="http://www.w3.org/2000/svg" xmlns:xlink="http://www.w3.org/1999/xlink" x="0px" y="0px"
	 viewBox="0 0 512 512" style="enable-background:new 0 0 512 512;" xml:space="preserve">
<style type="text/css">
	.st0{fill:#CCAF82;}
</style>
<g>
	<g>
		<path class="st0" d="M393.9,0H243.2c-12.2,0-23.6,4.7-32.2,13.4l-7.1,7.1l-9.3-9.3c-5.3-5.3-13.9-5.3-19.3,0l-7.8,7.8L154.1,5.4
			c-7.2-7.2-18.8-7.2-26,0L77.9,55.6c-3.5,3.5-5.4,8.1-5.4,13s1.9,9.5,5.4,13l13.5,13.5l-7.8,7.8c-5.3,5.3-5.3,14,0,19.3l9.3,9.3
			l-7.1,7.1c-8.6,8.6-13.4,20.1-13.4,32.2v295.7c0,25.1,20.5,45.6,45.6,45.6H288c4.1,0,7.5-3.4,7.5-7.5s-3.4-7.5-7.5-7.5H118.1
			c-16.9,0-30.6-13.7-30.6-30.6V170.8c0-8.2,3.2-15.9,9-21.6L221.6,24c5.8-5.8,13.5-9,21.6-9h150.7c16.9,0,30.6,13.7,30.6,30.6v49.5
			c0,4.1,3.4,7.5,7.5,7.5s7.5-3.4,7.5-7.5V45.6C439.5,20.5,419,0,393.9,0L393.9,0z M88.5,71c-1.3-1.3-1.3-3.4,0-4.8L138.7,16
			c1.3-1.3,3.4-1.3,4.8,0L157,29.5l-55,55L88.5,71z M95.2,112.5l77.7-77.7c0,0,0,0,0,0s0,0,0,0L185,22.7l8.3,8.3l-89.8,89.8
			L95.2,112.5z"/>
		<path class="st0" d="M432,120.3c-4.1,0-7.5,3.4-7.5,7.5v338.6c0,16.9-13.7,30.6-30.6,30.6h-73.5c-4.1,0-7.5,3.4-7.5,7.5
			s3.4,7.5,7.5,7.5h73.5c25.1,0,45.6-20.5,45.6-45.6V127.8C439.5,123.6,436.1,120.3,432,120.3L432,120.3z"/>
		<path class="st0" d="M380,89c16.3,0,29.5-13.2,29.5-29.5S396.3,30,380,30H261.9c-16.3,0-29.5,13.2-29.5,29.5S245.6,89,261.9,89
			H380z M247.4,59.5c0-8,6.5-14.5,14.5-14.5H380c8,0,14.5,6.5,14.5,14.5S388,74,380,74H261.9C253.9,74,247.4,67.5,247.4,59.5z"/>
		<path class="st0" d="M169.1,418.2c4.3-4.3,6.6-9.9,6.6-15.9v-18.1c0-4.1-3.4-7.5-7.5-7.5s-7.5,3.4-7.5,7.5v18.1
			c0,2-0.8,3.9-2.2,5.3l-10.5,10.5c-8.8,8.8-8.8,23,0,31.8c4.4,4.4,10.1,6.6,15.9,6.6s11.5-2.2,15.9-6.6l10.5-10.5
			c1.4-1.4,3.3-2.2,5.3-2.2h121.1c2,0,3.9,0.8,5.3,2.2l10.5,10.5c8.8,8.8,23,8.8,31.8,0c8.8-8.8,8.8-23,0-31.8l-10.5-10.5
			c-1.4-1.4-2.2-3.3-2.2-5.3V195.2c0-2,0.8-3.9,2.2-5.3l10.5-10.5c8.8-8.8,8.8-23,0-31.8c-4.3-4.3-9.9-6.6-15.9-6.6
			c-6,0-11.7,2.3-15.9,6.6l-10.5,10.5c-1.4,1.4-3.3,2.2-5.3,2.2H195.6c-2,0-3.9-0.8-5.3-2.2l-10.5-10.5c-4.3-4.3-9.9-6.6-15.9-6.6
			s-11.7,2.3-15.9,6.6c-4.3,4.3-6.6,9.9-6.6,15.9c0,6,2.3,11.7,6.6,15.9l10.5,10.5c1.4,1.4,2.2,3.3,2.2,5.3v156.6
			c0,4.1,3.4,7.5,7.5,7.5s7.5-3.4,7.5-7.5V195.2c0-6-2.3-11.7-6.6-15.9l-10.5-10.5c-1.4-1.4-2.2-3.3-2.2-5.3c0-2,0.8-3.9,2.2-5.3
			c1.4-1.4,3.3-2.2,5.3-2.2s3.9,0.8,5.3,2.2l10.5,10.5c4.3,4.3,9.9,6.6,15.9,6.6h121.1c6,0,11.7-2.3,15.9-6.6l10.5-10.5
			c2.9-2.9,7.7-2.9,10.6,0c2.9,2.9,2.9,7.7,0,10.6l-10.5,10.5c-4.3,4.2-6.6,9.9-6.6,15.9v207.1c0,6,2.3,11.7,6.6,15.9l10.5,10.5
			c2.9,2.9,2.9,7.7,0,10.6c-2.9,2.9-7.7,2.9-10.6,0l-10.5-10.5c-4.3-4.2-9.9-6.6-15.9-6.6H195.6c-6,0-11.7,2.3-15.9,6.6l-10.5,10.5
			c-2.9,2.9-7.7,2.9-10.6,0c-2.9-2.9-2.9-7.7,0-10.6L169.1,418.2z"/>
	</g>
</g>
</svg>
