<?xml version="1.0" encoding="utf-8"?>
<!-- Generator: Adobe Illustrator 24.0.2, SVG Export Plug-In . SVG Version: 6.00 Build 0)  -->
<svg version="1.1" id="Layer_1" xmlns="http://www.w3.org/2000/svg" xmlns:xlink="http://www.w3.org/1999/xlink" x="0px" y="0px"
	 viewBox="0 0 512 512" style="enable-background:new 0 0 512 512;" xml:space="preserve">
<style type="text/css">
	.st0{fill:#CCAF82;}
</style>
<g>
	<g>
		<polygon class="st0" points="325.5,52.8 325.5,68.4 409.8,68.4 409.8,443.6 400.6,443.6 400.6,117.1 385.1,117.1 385.1,443.6 
			325.5,443.6 325.5,459.2 425.4,459.2 425.4,52.8 		"/>
	</g>
</g>
<g>
	<g>
		<rect x="86.6" y="355.5" class="st0" width="15.5" height="15.5"/>
	</g>
</g>
<g>
	<g>
		<polygon class="st0" points="86.6,54.5 86.6,337.9 102.2,337.9 102.2,66.7 295.7,19.8 295.7,492.2 102.2,445.3 102.2,389.7 
			86.6,389.7 86.6,457.5 311.2,512 311.2,0 		"/>
	</g>
</g>
<g>
	<g>
		<path class="st0" d="M255.8,254.4c-12.7,0-23,10.3-23,23s10.3,23,23,23c12.7,0,23-10.3,23-23S268.4,254.4,255.8,254.4z
			 M255.8,284.9c-4.1,0-7.5-3.3-7.5-7.5s3.3-7.5,7.5-7.5s7.5,3.3,7.5,7.5S259.9,284.9,255.8,284.9z"/>
	</g>
</g>
<g>
	<g>
		<rect x="385.1" y="84" class="st0" width="15.5" height="15.5"/>
	</g>
</g>
</svg>
