<?xml version="1.0" encoding="utf-8"?>
<!-- Generator: Adobe Illustrator 24.0.2, SVG Export Plug-In . SVG Version: 6.00 Build 0)  -->
<svg version="1.1" id="_x31_" xmlns="http://www.w3.org/2000/svg" xmlns:xlink="http://www.w3.org/1999/xlink" x="0px" y="0px"
	 viewBox="0 0 512 512" style="enable-background:new 0 0 512 512;" xml:space="preserve">
<style type="text/css">
	.st0{fill:#CCAF82;}
</style>
<path class="st0" d="M461.2,43.1h-50V28c0-15.2-12.3-27.5-27.5-27.5c-15.2,0-27.5,12.3-27.5,27.5v15.1h-32c-4.1,0-7.5,3.4-7.5,7.5
	s3.4,7.5,7.5,7.5h32v15.1c0,15.2,12.3,27.5,27.5,27.5s27.5-12.3,27.5-27.5V58.1h50c9.6,0,17.5,7.9,17.5,17.5v58.6H131.1
	c-4.1,0-7.5,3.4-7.5,7.5s3.4,7.5,7.5,7.5h347.6V480c0,9.6-7.9,17.5-17.5,17.5H56.8c-9.6,0-17.5-7.9-17.5-17.5V149.2h58.6
	c4.1,0,7.5-3.4,7.5-7.5s-3.4-7.5-7.5-7.5H39.3V75.6c0-9.6,7.9-17.5,17.5-17.5h50v15.1c0,15.2,12.3,27.5,27.5,27.5
	s27.5-12.3,27.5-27.5V58.1h129.9c4.1,0,7.5-3.4,7.5-7.5s-3.4-7.5-7.5-7.5H161.8V28c0-15.2-12.3-27.5-27.5-27.5S106.8,12.8,106.8,28
	v15.1h-50c-17.9,0-32.5,14.6-32.5,32.5V480c0,17.9,14.6,32.5,32.5,32.5h404.4c17.9,0,32.5-14.6,32.5-32.5V75.6
	C493.7,57.7,479.1,43.1,461.2,43.1L461.2,43.1z M396.2,73.2c0,6.9-5.6,12.5-12.5,12.5s-12.5-5.6-12.5-12.5V28
	c0-6.9,5.6-12.5,12.5-12.5s12.5,5.6,12.5,12.5V73.2z M121.8,28c0-6.9,5.6-12.5,12.5-12.5c6.9,0,12.5,5.6,12.5,12.5v45.2
	c0,6.9-5.6,12.5-12.5,12.5h0c-6.9,0-12.5-5.6-12.5-12.5L121.8,28L121.8,28z"/>
<path class="st0" d="M423.3,256.7c4.2,0,7.6-3.4,7.6-7.6s-3.4-7.6-7.6-7.6h-26.7v-22.9c0-4.2-3.4-7.6-7.6-7.6s-7.6,3.4-7.6,7.6v22.9
	h-48.3v-22.9c0-4.2-3.4-7.6-7.6-7.6s-7.6,3.4-7.6,7.6v22.9h-48.3v-22.9c0-4.2-3.4-7.6-7.6-7.6s-7.6,3.4-7.6,7.6v22.9h-48.3v-22.9
	c0-4.2-3.4-7.6-7.6-7.6s-7.6,3.4-7.6,7.6v22.9h-48.3v-22.9c0-4.2-3.4-7.6-7.6-7.6s-7.6,3.4-7.6,7.6v22.9h-26.7
	c-4.2,0-7.6,3.4-7.6,7.6s3.4,7.6,7.6,7.6h26.7v58.5h-26.7c-4.2,0-7.6,3.4-7.6,7.6s3.4,7.6,7.6,7.6h26.7v58.5h-26.7
	c-4.2,0-7.6,3.4-7.6,7.6s3.4,7.6,7.6,7.6h26.7v22.9c0,4.2,3.4,7.6,7.6,7.6s7.6-3.4,7.6-7.6v-22.9h48.3v22.9c0,4.2,3.4,7.6,7.6,7.6
	s7.6-3.4,7.6-7.6v-22.9h48.3v22.9c0,4.2,3.4,7.6,7.6,7.6s7.6-3.4,7.6-7.6v-22.9h48.3v22.9c0,4.2,3.4,7.6,7.6,7.6s7.6-3.4,7.6-7.6
	v-22.9h48.3v22.9c0,4.2,3.4,7.6,7.6,7.6s7.6-3.4,7.6-7.6v-22.9h26.7c4.2,0,7.6-3.4,7.6-7.6s-3.4-7.6-7.6-7.6h-26.7v-58.5h26.7
	c4.2,0,7.6-3.4,7.6-7.6s-3.4-7.6-7.6-7.6h-26.7v-58.5H423.3z M317.8,256.7v58.5h-48.3v-58.5H317.8z M254.2,256.7v58.5h-48.3v-58.5
	H254.2z M142.4,256.7h48.3v58.5h-48.3V256.7z M142.4,388.9v-58.5h48.3v58.5H142.4z M205.9,388.9v-58.5h48.3v58.5H205.9z
	 M269.5,388.9v-58.5h48.3v58.5H269.5z M381.4,388.9h-48.3v-58.5h48.3V388.9z M381.4,315.2h-48.3v-58.5h48.3V315.2z"/>
</svg>
