<?xml version="1.0" encoding="utf-8"?>
<!-- Generator: Adobe Illustrator 24.0.2, SVG Export Plug-In . SVG Version: 6.00 Build 0)  -->
<svg version="1.1" id="Layer_1" xmlns="http://www.w3.org/2000/svg" xmlns:xlink="http://www.w3.org/1999/xlink" x="0px" y="0px"
	 viewBox="0 0 512 512" style="enable-background:new 0 0 512 512;" xml:space="preserve">
<style type="text/css">
	.st0{fill:#CCAF82;}
</style>
<g id="engine_power">
	<path class="st0" d="M472,168h-16c-4.4,0-8,3.6-8,8v72h-16v-80c0-13.2-10.8-24-24-24h-48v-32h80c4.4,0,8-3.6,8-8V88
		c0-22.1-17.9-40-40-40H248c-22.1,0-40,17.9-40,40v16c0,4.4,3.6,8,8,8h80v32h-63.2c-1.6,0-3.2,0.5-4.6,1.4L149.5,200H104
		c-13.2,0-24,10.8-24,24v104H64v-72c0-4.4-3.6-8-8-8H40c-13.2,0-24,10.8-24,24v160c0,13.2,10.8,24,24,24h16c4.4,0,8-3.6,8-8v-72h16
		v64c0,13.2,10.8,24,24,24h221.6c9.5,0,18.1-5.6,21.9-14.2l25.7-57.8H424c4.4,0,8-3.6,8-8v-88h16v72c0,4.4,3.6,8,8,8h16
		c13.2,0,24-10.8,24-24V192C496,178.8,485.2,168,472,168z M48,440h-8c-4.4,0-8-3.6-8-8V272c0-4.4,3.6-8,8-8h8V440z M80,360H64v-16
		h16V360z M224,96v-8c0-13.2,10.8-24,24-24h160c13.2,0,24,10.8,24,24v8H224z M344,112v32h-32v-32H344z M416,376h-48
		c-3.2,0-6,1.8-7.3,4.7l-27.8,62.6c-1.3,2.9-4.1,4.7-7.3,4.7H104c-4.4,0-8-3.6-8-8V224c0-4.4,3.6-8,8-8h48c1.6,0,3.2-0.5,4.6-1.4
		l78.7-54.6H408c4.4,0,8,3.6,8,8V376z M448,280h-16v-16h16V280z M480,352c0,4.4-3.6,8-8,8h-8V184h8c4.4,0,8,3.6,8,8V352z"/>
	<path class="st0" d="M216,280c-22.1,0-40,17.9-40,40s17.9,40,40,40s40-17.9,40-40C256,297.9,238.1,280,216,280z M216,344
		c-13.3,0-24-10.7-24-24s10.7-24,24-24s24,10.7,24,24S229.3,344,216,344z"/>
	<path class="st0" d="M377,264.9l-19.2-2.5l11.9-15.3c2.5-3.2,2.2-7.7-0.6-10.6L347.4,215c-2.9-2.8-7.4-3.1-10.6-0.6l-15.3,11.9
		l-2.5-19.2c-0.5-4-3.9-7-7.9-7h-30.4c-4,0-7.4,3-7.9,7l-2.5,19.2l-15.3-11.9c-3.2-2.5-7.7-2.2-10.6,0.6l-17,17h-26.8
		c-4,0-7.4,3-7.9,7l-2.5,19.2l-15.3-11.9c-3.2-2.5-7.7-2.2-10.6,0.6L143,268.6c-2.8,2.9-3.1,7.4-0.6,10.6l11.9,15.3l-19.2,2.5
		c-4,0.5-7,3.9-7,7.9v30.4c0,4,3,7.4,7,7.9l19.2,2.5l-11.9,15.2c-2.5,3.2-2.2,7.7,0.6,10.6l21.6,21.6c2.9,2.8,7.4,3.1,10.6,0.6
		l15.3-11.9l2.5,19.2c0.5,4,3.9,7,7.9,7h30.4c4,0,7.4-3,7.9-7l2.5-19.2l15.3,11.9c3.2,2.5,7.7,2.2,10.6-0.6l17-17h26.8
		c4,0,7.4-3,7.9-7l2.5-19.2l15.3,11.9c3.2,2.5,7.7,2.2,10.6-0.6l21.6-21.6c2.8-2.9,3.1-7.4,0.6-10.6l-11.9-15.3l19.2-2.5
		c4-0.5,7-3.9,7-7.9v-30.4C384,268.8,381,265.4,377,264.9L377,264.9z M261.1,376.7L246,365c-2.4-1.9-5.6-2.2-8.3-0.9
		c-1.8,0.9-3.7,1.7-5.6,2.2c-3,1-5.1,3.6-5.5,6.6l-2.4,19h-16.3l-2.4-19c-0.4-3.1-2.6-5.7-5.5-6.6c-1.9-0.6-3.8-1.3-5.6-2.2
		c-2.7-1.3-5.9-1-8.3,0.9l-15.1,11.8l-11.6-11.6L171,350c1.9-2.4,2.2-5.6,0.9-8.3c-0.9-1.8-1.7-3.7-2.2-5.6c-1-3-3.6-5.1-6.6-5.5
		l-19-2.4v-16.3l19-2.4c3.1-0.4,5.7-2.6,6.6-5.5c0.6-1.9,1.3-3.8,2.2-5.6c1.3-2.7,1-5.9-0.9-8.3l-11.8-15.1l11.6-11.6L186,275
		c2.4,1.9,5.6,2.2,8.3,0.9c1.8-0.9,3.7-1.7,5.6-2.2c3-1,5.1-3.6,5.5-6.6l2.4-19h16.1l2.6,19.1c0.4,3.1,2.6,5.6,5.5,6.6
		c1.9,0.6,3.8,1.3,5.6,2.2c2.7,1.3,6,1,8.4-1l15-11.7l11.6,11.6L261,290c-1.9,2.4-2.2,5.6-0.9,8.3c0.9,1.8,1.7,3.7,2.2,5.6
		c1,3,3.6,5.1,6.6,5.5l19,2.4v16.3l-19,2.4c-3.1,0.6-5.7,2.8-6.7,5.8l-0.4,1.3c-0.6,1.4-1.2,2.7-1.8,4c-1.3,2.7-1,5.9,0.9,8.3
		l11.8,15.1L261.1,376.7z M289,268.6l-2.6-2.6c12.2-5.2,26.2,0.4,31.5,12.5c5.2,12.2-0.4,26.2-12.5,31.5c-0.5,0.2-0.9,0.4-1.4,0.5
		v-5.8c0-4-3-7.4-7-7.9l-19.2-2.5l11.9-15.3C292.1,275.9,291.9,271.4,289,268.6L289,268.6z M368,296.2l-19,2.4
		c-3.1,0.4-5.7,2.6-6.6,5.5c-0.6,1.9-1.3,3.8-2.2,5.6c-1.3,2.7-1,5.9,0.9,8.3l11.8,15.1l-11.6,11.6L326,333
		c-2.4-1.8-5.6-2.2-8.3-0.9c-1.8,0.9-3.7,1.7-5.6,2.2c-3,1-5.1,3.6-5.5,6.6l-2.4,19H289l-11.3-14.4l19.2-2.5c4-0.5,7-3.9,7-7.9v-8
		c21.6-4.5,35.6-25.6,31.1-47.2s-25.6-35.6-47.2-31.1c-4.7,1-9.2,2.8-13.2,5.3l-7.2-7.2c-2.9-2.8-7.4-3.1-10.6-0.6l-15.4,11.9
		l-2.2-15.4l11.5-11.6L266,243c2.4,1.9,5.6,2.2,8.3,0.9c1.8-0.9,3.7-1.7,5.6-2.2c3-1,5.1-3.6,5.5-6.6l2.4-19h16.3l2.4,19
		c0.4,3.1,2.6,5.7,5.5,6.6c1.9,0.6,3.8,1.3,5.6,2.2c2.7,1.3,5.9,1,8.3-0.9l15.1-11.8l11.6,11.6L341,258c-1.9,2.4-2.2,5.6-0.9,8.3
		c0.9,1.8,1.7,3.7,2.2,5.6c1,3,3.6,5.1,6.6,5.5l19,2.4V296.2z"/>
	<path class="st0" d="M384,176h16v16h-16V176z"/>
	<path class="st0" d="M352,176h16v16h-16V176z"/>
	<path class="st0" d="M112,416h16v16h-16V416z"/>
	<path class="st0" d="M144,416h16v16h-16V416z"/>
</g>
</svg>
