<?xml version="1.0" encoding="utf-8"?>
<!-- Generator: Adobe Illustrator 24.0.2, SVG Export Plug-In . SVG Version: 6.00 Build 0)  -->
<svg version="1.1" id="_x31_" xmlns="http://www.w3.org/2000/svg" xmlns:xlink="http://www.w3.org/1999/xlink" x="0px" y="0px"
	 viewBox="0 0 512 512" style="enable-background:new 0 0 512 512;" xml:space="preserve">
<style type="text/css">
	.st0{fill:none;stroke:#CCAF82;stroke-width:17;stroke-miterlimit:10;}
	.st1{fill-rule:evenodd;clip-rule:evenodd;fill:#CCAF82;}
	.st2{fill:#CCAF82;}
</style>
<path class="st0" d="M56.4,145.5c-2.1,5.9-2.5,20.3-1.2,43.3c0.4,23.3,1.6,64.4,7.5,94.7c5.7,29.2,16.4,56.6,28.5,81
	c11.8,23.4,14.3,40.2,43.6,63.3c29.4,23.6,71.8,47.3,130.4,75.2c59.6-25.8,102.6-49.9,131.8-72.3c28.7-23.2,28.1-39.8,40.1-63.7
	c12.2-25,22.7-50.8,30.1-80.4c6.4-29.6,7.4-71.8,9.2-94.8c1.6-24.3,1.7-38.2,0.4-45.7L56.4,145.5z"/>
<path class="st1" d="M420.4,59.3l-0.1,23.8L109.2,82l0.1-23.8L420.4,59.3z"/>
<g>
	<g>
		<path class="st2" d="M65.7,76.1l51.3,55c1.5,1.6,3.4,2.4,5.5,2.4c2.1,0,4-0.9,5.5-2.4l4.7-5c1.5-1.6,2.3-3.7,2.3-5.9
			c0-2.2-0.8-4.4-2.3-6l-29.9-32.2l95.3,0.2c4.3,0,7.7-3.6,7.7-8.2l0-7.1c0-4.6-3.4-8.6-7.7-8.6l-95.6-0.2l30.4-32.2
			c1.5-1.6,2.3-3.6,2.3-5.8c0-2.2-0.8-4.3-2.3-5.9l-4.7-5c-1.5-1.6-3.4-2.4-5.5-2.4c-2.1,0-4,0.9-5.5,2.4L65.7,64.3
			c-1.5,1.6-2.3,3.7-2.3,5.9C63.4,72.4,64.2,74.5,65.7,76.1z"/>
	</g>
</g>
<g>
	<g>
		<path class="st2" d="M463.5,65.5l-51.1-54.8c-1.5-1.6-3.4-2.4-5.5-2.4c-2.1,0-4,0.8-5.5,2.4l-4.7,4.9c-1.5,1.6-2.3,3.6-2.3,5.8
			c0,2.2,0.8,4.4,2.3,5.9l29.8,32l-95.1-0.3c-4.3,0-7.7,3.5-7.7,8.1l0,7c0,4.6,3.4,8.5,7.6,8.5l95.4,0.3l-30.4,32
			c-1.5,1.6-2.3,3.6-2.3,5.8c0,2.2,0.8,4.3,2.3,5.8l4.6,5c1.5,1.6,3.4,2.4,5.5,2.4c2.1,0,4-0.8,5.5-2.4l51.5-54.4
			c1.5-1.6,2.3-3.6,2.3-5.9C465.7,69.2,464.9,67.1,463.5,65.5z"/>
	</g>
</g>
</svg>
