<?xml version="1.0" encoding="utf-8"?>
<!-- Generator: Adobe Illustrator 24.0.2, SVG Export Plug-In . SVG Version: 6.00 Build 0)  -->
<svg version="1.1" id="Layer_1" xmlns="http://www.w3.org/2000/svg" xmlns:xlink="http://www.w3.org/1999/xlink" x="0px" y="0px"
	 viewBox="0 0 512 512" style="enable-background:new 0 0 512 512;" xml:space="preserve">
<style type="text/css">
	.st0{fill:#CCAF82;}
</style>
<g>
	<g>
		<path class="st0" d="M490.7,261.3v-42.7c0-32.4-20.9-53.3-53.3-53.3H192c-32.4,0-53.3,20.9-53.3,53.3V261l-103.8,0.2H21.3V80.3
			c0-5.3-3.8-10.1-9.1-10.9C5.7,68.5,0,73.6,0,80v351.7c0,5.3,3.8,10.1,9.1,10.9c6.6,1,12.3-4.2,12.3-10.6v-64h469.3v63.7
			c0,5.3,3.8,10.1,9.1,10.9c6.6,1,12.3-4.2,12.3-10.6V282.7C512,268.2,505.2,261.4,490.7,261.3z M160,218.7c0-27.8,20.1-32,32-32
			h245.3c11.9,0,32,4.2,32,32v42.7H160V218.7z M490.7,346.7H21.3v-64h469.3L490.7,346.7L490.7,346.7z"/>
	</g>
</g>
<g>
	<g>
		<path class="st0" d="M80.5,142.5c-32.7,0-59.3,26.5-59.3,59.3S47.8,261,80.5,261s59.3-26.5,59.3-59.3S113.2,142.5,80.5,142.5z
			 M80.5,242c-22.2,0-40.3-18-40.3-40.3s18-40.3,40.3-40.3s40.3,18,40.3,40.3S102.7,242,80.5,242z"/>
	</g>
</g>
</svg>
