<?xml version="1.0" encoding="utf-8"?>
<!-- Generator: Adobe Illustrator 24.0.2, SVG Export Plug-In . SVG Version: 6.00 Build 0)  -->
<svg version="1.1" id="_x31_" xmlns="http://www.w3.org/2000/svg" xmlns:xlink="http://www.w3.org/1999/xlink" x="0px" y="0px"
	 viewBox="0 0 512 512" style="enable-background:new 0 0 512 512;" xml:space="preserve">
<style type="text/css">
	.st0{fill:none;stroke:#CCAF82;stroke-width:17;stroke-miterlimit:10;}
	.st1{fill:#CCAF82;}
</style>
<path class="st0" d="M47.8,142.3c-2.1,5.9-2.5,20.3-1.2,43.3c0.4,23.3,1.6,64.4,7.5,94.7c5.7,29.2,16.4,56.6,28.5,81
	c11.8,23.4,14.3,40.2,43.6,63.3c29.4,23.6,71.8,47.3,130.4,75.2c59.6-25.8,102.6-49.9,131.8-72.3c28.7-23.2,28.1-39.8,40.1-63.7
	c12.2-25,22.7-50.8,30.1-80.4c6.4-29.6,7.4-71.8,9.2-94.8c1.6-24.3,1.7-38.2,0.4-45.7L47.8,142.3z"/>
<g>
	<g>
		<path class="st1" d="M250.9,237.3l-55.1,51.3c-1.6,1.5-2.4,3.4-2.4,5.5c0,2.1,0.9,4,2.5,5.5l5,4.6c1.6,1.5,3.7,2.2,5.9,2.2
			c2.2,0,4.4-0.8,6-2.3l32.2-29.9l0.3,94.8c0,4.3,3.6,7.6,8.3,7.6l7.1,0c4.6,0,8.6-3.4,8.6-7.7l-0.3-95.1l32.6,30
			c1.6,1.5,3.6,2.2,5.9,2.2c2.2,0,4.3-0.8,5.9-2.3l5-4.7c1.6-1.5,2.4-3.4,2.4-5.5c0-2.1-0.9-4-2.5-5.5l-55.4-50.9
			c-1.6-1.5-3.7-2.3-5.9-2.2C254.6,235,252.5,235.9,250.9,237.3z"/>
	</g>
</g>
<g>
	<g>
		<path class="st1" d="M263.2,470.3l54.5-51.4c1.6-1.5,2.4-3.4,2.4-5.5c0-2.1-0.9-4-2.4-5.5l-5-4.6c-1.6-1.5-3.6-2.3-5.9-2.3
			c-2.2,0-4.4,0.8-5.9,2.3l-31.9,30l-0.1-95c0-4.3-3.6-7.7-8.1-7.7l-7,0c-4.6,0-8.5,3.4-8.5,7.7l0.2,95.4l-32.1-30.2
			c-1.6-1.5-3.6-2.3-5.8-2.3c-2.2,0-4.3,0.8-5.8,2.3l-4.9,4.7c-1.6,1.5-2.4,3.4-2.4,5.5c0,2.1,0.9,4,2.4,5.5l54.7,51.2
			c1.6,1.5,3.7,2.3,5.9,2.3C259.6,472.6,261.7,471.8,263.2,470.3z"/>
	</g>
</g>
<path class="st1" d="M19.1,214.6c6.9,0,9.9,2.4,14.3,6c5.5,4.5,12.4,10,25.3,10c12.9,0,19.8-5.6,25.3-10c4.5-3.6,7.4-6,14.3-6
	c6.9,0,9.9,2.4,14.3,6c5.5,4.5,12.4,10,25.3,10c12.9,0,19.8-5.6,25.3-10c4.5-3.6,7.4-6,14.3-6c6.9,0,9.9,2.4,14.3,6
	c5.5,4.5,12.4,10,25.3,10c12.9,0,19.8-5.6,25.3-10c4.5-3.6,7.4-6,14.3-6c5.5,0,9.9-5.4,9.9-12c0-6.6-4.4-12-9.9-12
	c-12.9,0-19.8,5.6-25.3,10c-4.5,3.6-7.4,6-14.3,6c-6.9,0-9.9-2.4-14.3-6c-5.5-4.5-12.4-10-25.3-10c-12.9,0-19.8,5.6-25.3,10
	c-4.5,3.6-7.4,6-14.3,6c-6.9,0-9.9-2.4-14.3-6c-5.5-4.5-12.4-10-25.3-10c-12.9,0-19.8,5.6-25.3,10c-4.5,3.6-7.4,6-14.3,6
	s-9.9-2.4-14.3-6c-5.5-4.5-12.4-10-25.3-10c-5.5,0-9.9,5.4-9.9,12S13.6,214.6,19.1,214.6z"/>
<path class="st1" d="M256.1,214.2c6.9,0,9.9,2.4,14.3,6c5.5,4.5,12.4,10,25.3,10c12.9,0,19.8-5.6,25.3-10c4.5-3.6,7.4-6,14.3-6
	c6.9,0,9.9,2.4,14.3,6c5.5,4.5,12.4,10,25.3,10c12.9,0,19.8-5.6,25.3-10c4.5-3.6,7.4-6,14.3-6c6.9,0,9.9,2.4,14.3,6
	c5.5,4.5,12.4,10,25.3,10c12.9,0,19.8-5.6,25.3-10c4.5-3.6,7.4-6,14.3-6c5.5,0,9.9-5.4,9.9-12c0-6.6-4.4-12-9.9-12
	c-12.9,0-19.8,5.6-25.3,10c-4.5,3.6-7.4,6-14.3,6c-6.9,0-9.9-2.4-14.3-6c-5.5-4.5-12.4-10-25.3-10c-12.9,0-19.8,5.6-25.3,10
	c-4.5,3.6-7.4,6-14.3,6c-6.9,0-9.9-2.4-14.3-6c-5.5-4.5-12.4-10-25.3-10c-12.9,0-19.8,5.6-25.3,10c-4.5,3.6-7.4,6-14.3,6
	s-9.9-2.4-14.3-6c-5.5-4.5-12.4-10-25.3-10c-5.5,0-9.9,5.4-9.9,12C246.2,208.8,250.6,214.2,256.1,214.2z"/>
</svg>
