<?xml version="1.0" encoding="utf-8"?>
<!-- Generator: Adobe Illustrator 24.0.2, SVG Export Plug-In . SVG Version: 6.00 Build 0)  -->
<svg version="1.1" id="Capa_1" xmlns="http://www.w3.org/2000/svg" xmlns:xlink="http://www.w3.org/1999/xlink" x="0px" y="0px"
	 viewBox="0 0 512 512" style="enable-background:new 0 0 512 512;" xml:space="preserve">
<style type="text/css">
	.st0{fill:#CCAF82;}
</style>
<g>
	<path class="st0" d="M497,312.9v-22.3c0-4.1-3.4-7.5-7.5-7.5s-7.5,3.4-7.5,7.5v22.3h-72v-66.8c0-10.1-8.2-18.2-18.2-18.2h-33v-72
		h63.4c33,0,59.8,26.8,59.8,59.8v39.9c0,4.1,3.4,7.5,7.5,7.5s7.5-3.4,7.5-7.5v-39.9c0-41.2-33.6-74.8-74.8-74.8h-65.3
		c-4.9-14.9-19-25.7-35.6-25.7h-24.9V86.7c10.2-0.4,18.7-7.7,20.9-17.4h75.2c14.1,0.1,26-11.9,26-26c0-14.3-11.7-26-26-26h-75.2
		C315,7.4,306.1,0,295.4,0h-48.9c-10.6,0-19.6,7.4-21.9,17.4h-75.2c-14.2-0.1-26,11.8-26,26c0,14.3,11.7,26,26,26h75.2
		c2.3,9.6,10.7,16.9,20.9,17.4v28.4h-24.9c-16.6,0-30.7,10.8-35.6,25.7h-56.4c-3.1-8.7-11.4-15-21.2-15s-18.1,6.3-21.2,15H7.5
		c-4.1,0-7.5,3.4-7.5,7.5s3.4,7.5,7.5,7.5H85v72H7.5c-4.1,0-7.5,3.4-7.5,7.5s3.4,7.5,7.5,7.5h78.8c3.1,8.7,11.4,15,21.2,15
		s18.1-6.3,21.2-15h56.4c4.9,14.9,19,25.7,35.6,25.7h12.7c4.1,0,7.5-3.4,7.5-7.5c0-4.1-3.4-7.5-7.5-7.5h-12.7
		c-11.2,0-20.6-8.3-22.2-19c0,0,0-0.1,0-0.1c0.3-1.4-0.3-82.6,0-85.3c0,0,0,0,0,0c1.7-10.8,11-19.1,22.2-19.1h100.6
		c11.2,0,20.6,8.3,22.2,19.1c0,0,0,0,0,0c1.2,10,1,76.5,0,85.3c0,0,0,0.1,0,0.1c-1.7,10.8-11,19-22.2,19h-52.9
		c-4.1,0-7.5,3.4-7.5,7.5c0,4.1,3.4,7.5,7.5,7.5h52.9c16.6,0,30.7-10.8,35.6-25.7h34.9c1.8,0,3.2,1.4,3.2,3.2v66.8
		c-8.3,0.1-15,6.8-15,15.1v14.8c0,8.3,6.8,15.1,15.1,15.1h101.8c8.3,0,15.1-6.8,15.1-15.1V328C512,319.7,505.3,313,497,312.9
		L497,312.9z M317.9,32.4h74.6c6.1,0,11,4.9,11,11c0,6-5,11-11,11h-74.6V32.4z M224.1,54.4h-74.6c-6.1,0-11-4.9-11-11
		c0-6,5-11,11-11h74.6V54.4z M115,235.4c0,4.1-3.4,7.5-7.5,7.5s-7.5-3.4-7.5-7.5v-87c0-4.1,3.4-7.5,7.5-7.5s7.5,3.4,7.5,7.5V235.4z
		 M183.2,227.9H130v-72h53.2V227.9z M281.4,115.1h-20.9V86.8h20.9V115.1z M246.6,71.8c-4.1,0-7.5-3.4-7.5-7.5V22.5
		c0-4.1,3.4-7.5,7.5-7.5h48.9c4.1,0,7.5,3.4,7.5,7.5v41.8c0,4.1-3.4,7.5-7.5,7.5H246.6z M497,342.8c0,0.1-0.1,0.1-0.1,0.1H395.1
		c-0.1,0-0.1-0.1-0.1-0.1V328c0-0.1,0.1-0.1,0.1-0.1h101.8c0.1,0,0.1,0.1,0.1,0.1V342.8z M453.4,383.8c-4.1-4-10.7-4-14.8,0
		c-14.2,14-47.1,49.2-47.1,73.7c0,30,24.4,54.5,54.5,54.5s54.5-24.4,54.5-54.5C500.5,433,467.5,397.8,453.4,383.8z M446,497
		c-21.8,0-39.5-17.7-39.5-39.5c0-9.3,10.4-30.4,39.5-59.9c29.1,29.4,39.5,50.6,39.5,59.9C485.5,479.3,467.8,497,446,497z"/>
</g>
</svg>
