<?xml version="1.0" encoding="utf-8"?>
<!-- Generator: Adobe Illustrator 24.0.2, SVG Export Plug-In . SVG Version: 6.00 Build 0)  -->
<svg version="1.1" id="Capa_1" xmlns="http://www.w3.org/2000/svg" xmlns:xlink="http://www.w3.org/1999/xlink" x="0px" y="0px"
	 viewBox="0 0 512 512" style="enable-background:new 0 0 512 512;" xml:space="preserve">
<style type="text/css">
	.st0{fill:#CCAF82;}
</style>
<g>
	<g>
		<path class="st0" d="M351,30h-57.5v-7.5C293.5,10.1,283.4,0,271,0h-30c-12.4,0-22.5,10.1-22.5,22.5V30H161
			c-20.7,0-37.5,16.8-37.5,37.5v147c0,4.1,3.4,7.5,7.5,7.5h250c4.1,0,7.5-3.4,7.5-7.5v-147C388.5,46.8,371.7,30,351,30z M233.5,22.5
			c0-4.1,3.4-7.5,7.5-7.5h30c4.1,0,7.5,3.4,7.5,7.5V30h-45V22.5z M373.5,207h-235V67.5c0-12.4,10.1-22.5,22.5-22.5h190
			c12.4,0,22.5,10.1,22.5,22.5V207z"/>
	</g>
</g>
<g>
	<g>
		<path class="st0" d="M381,237H131c-12.4,0-22.5,10.1-22.5,22.5c0,9.8,6.3,18.2,15.1,21.3c1,26,8.4,51.3,21.6,73.6
			c12.9,21.9,31.1,40.5,52.7,53.9l-13.3,95.2c-0.3,2.1,0.3,4.3,1.8,6c1.4,1.6,3.5,2.6,5.7,2.6h130c2.2,0,4.3-1,5.7-2.6
			s2-3.9,1.7-6.1l-15.2-95.1c21.5-13.4,39.7-32,52.6-53.9c13.2-22.3,20.6-47.6,21.6-73.6c8.8-3.1,15.1-11.4,15.1-21.3
			C403.5,247.1,393.4,237,381,237z M303.9,396.9H236c-4.1,0-7.5,3.4-7.5,7.5s3.4,7.5,7.5,7.5h63.6l13.6,85.1H200.6l12.8-91.5
			c0.4-3-1-6-3.7-7.5c-41.8-24.2-68.5-68.1-71-115.9h234.6C370.8,329.2,344.7,372.6,303.9,396.9z M381,267H131
			c-4.1,0-7.5-3.4-7.5-7.5s3.4-7.5,7.5-7.5h250c4.1,0,7.5,3.4,7.5,7.5C388.5,263.6,385.1,267,381,267z"/>
	</g>
</g>
<g>
	<g>
		<path class="st0" d="M351,60H161c-4.1,0-7.5,3.4-7.5,7.5s3.4,7.5,7.5,7.5h190c4.1,0,7.5-3.4,7.5-7.5S355.1,60,351,60z"/>
	</g>
</g>
</svg>
