<?xml version="1.0" encoding="utf-8"?>
<!-- Generator: Adobe Illustrator 24.0.2, SVG Export Plug-In . SVG Version: 6.00 Build 0)  -->
<svg version="1.1" xmlns="http://www.w3.org/2000/svg" xmlns:xlink="http://www.w3.org/1999/xlink" x="0px" y="0px"
	 viewBox="0 0 724 200.6" style="enable-background:new 0 0 724 200.6;" xml:space="preserve">
<style type="text/css">
	.st0{display:none;}
	.st1{fill:url(#SVGID_1_);}
</style>
<g id="RAZMERJA" class="st0">
</g>
<g id="LOGO">
	<linearGradient id="SVGID_1_" gradientUnits="userSpaceOnUse" x1="35.4677" y1="100.3372" x2="177.2" y2="100.3372">
		<stop  offset="2.398106e-04" style="stop-color:#00AAF0"/>
		<stop  offset="1" style="stop-color:#0064B9"/>
	</linearGradient>
	<path class="st1" d="M106.3,70.8L35.5,35.5v79.8c0,9.3,5.3,17.3,13.1,21.1l57.8,28.9l57.8-28.9c7.7-3.9,13.1-11.9,13.1-21.1V35.5
		L106.3,70.8z"/>
	<g>
		<polygon points="223.8,64.5 234.9,92.7 246.2,64.5 255.1,64.5 237.4,106.4 232.2,106.4 214.8,64.5 		"/>
		<path d="M305.5,106.4V89.6h1.1l11.3,16.8h10.1l-13.2-17.7c6.4-1.3,9.6-5.2,9.6-11.8c0-3.5-1.1-6.4-3.3-8.7
			c-2.4-2.5-6.3-3.7-11.5-3.7h-12.2v41.9H305.5z M305.5,71.1h2.5c5.3,0,7.9,2.1,7.9,6.3c0,4.3-2.7,6.4-8,6.4h-2.4V71.1z"/>
		<path d="M341.6,64.5v24c0,2.6,0.1,4.3,0.3,5.1c0.3,1.1,0.7,2.1,1.4,3.1c1.6,2.2,3.9,3.2,6.9,3.2c3,0,5.3-1.1,6.9-3.2
			c0.7-0.9,1.2-2,1.4-3.1c0.2-0.8,0.3-2.6,0.3-5.1v-24h8.2v25.6c0,5.5-1.4,9.6-4.1,12.4c-3.2,3.2-7.4,4.8-12.7,4.8
			c-5.3,0-9.6-1.6-12.7-4.8c-2.7-2.8-4.1-7-4.1-12.4V64.5H341.6z"/>
		<polygon points="384.9,80.7 402.6,80.7 402.6,64.5 410.8,64.5 410.8,106.4 402.6,106.4 402.6,87.8 384.9,87.8 384.9,106.4 
			376.8,106.4 376.8,64.5 384.9,64.5 		"/>
		<polygon points="447.7,99.4 467,99.4 467,106.4 434.1,106.4 454.6,71.7 437.3,71.7 437.3,64.5 468.1,64.5 		"/>
		<path d="M486.1,106.4c6.8,0,12.3-2.1,16.4-6.1c4.1-4.1,6.2-9,6.2-14.9c0-5.8-2-10.7-6-14.8c-4.1-4.1-9.6-6.1-16.5-6.1h-12v41.9
			H486.1z M482.4,71.7h2.2c2.9,0,5.3,0.3,7.2,0.9c1.9,0.7,3.5,1.7,4.9,3.2c2.5,2.6,3.7,5.8,3.7,9.7c0,3.8-1.2,7-3.7,9.7
			c-1.3,1.5-2.9,2.6-4.9,3.2c-1.9,0.7-4.3,1-7.2,1h-2.2V71.7z"/>
		<path d="M522.9,106.4V89.6h1.1l11.3,16.8h10.1l-13.2-17.7c6.4-1.3,9.6-5.2,9.6-11.8c0-3.5-1.1-6.4-3.3-8.7
			c-2.4-2.5-6.3-3.7-11.5-3.7h-12.2v41.9H522.9z M522.9,71.1h2.5c5.3,0,7.9,2.1,7.9,6.3c0,4.3-2.7,6.4-8,6.4h-2.4V71.1z"/>
		<polygon points="594.5,64.5 605.7,92.7 617,64.5 625.9,64.5 608.2,106.4 603,106.4 585.6,64.5 		"/>
		<path d="M642.6,64.5v28.3c0,5.5-1.2,9.4-3.7,11.7c-2.1,1.9-4.7,2.9-7.8,2.9c-3.7,0-6.9-1.3-9.8-3.9l4.9-5.9c1.1,1.6,2.4,2.3,4,2.3
			c1.6,0,2.7-0.6,3.3-1.8c0.6-1.2,0.9-3.3,0.9-6.6V64.5H642.6z"/>
		<polygon points="271.9,75.9 283.9,106.4 292.7,106.4 275.4,64.5 268.5,64.5 250.8,106.4 259.4,106.4 		"/>
		<polygon points="557.2,105.1 566.1,83.4 569.1,75.9 569.2,76 569.2,75.9 581.2,106.4 589.9,106.4 572.6,64.5 565.8,64.5 
			548,106.4 556.6,106.4 		"/>
		<polygon points="668.6,75.9 668.6,76 668.6,75.9 674.5,91 674.5,91 679,102.4 680.6,106.4 689.4,106.4 672.1,64.5 665.3,64.5 
			647.5,106.4 656.1,106.4 		"/>
	</g>
	<g>
		<path d="M382.1,126.3l5.5,13.8l5.6-13.8h3.3l-8.9,21.3l-8.7-21.3H382.1z"/>
		<path d="M402,143.3h9.5v2.8h-14.4l9.7-17h-8.2v-2.8h13.1L402,143.3z"/>
		<path d="M427.2,141.3h-8.5l-2.2,4.8h-3.2l9.8-21.1l9.5,21.1h-3.3L427.2,141.3z M426,138.5l-2.9-6.7l-3.1,6.7H426z"/>
		<path d="M441.6,126.3v12.8c0,1.5-0.1,2.6-0.3,3.4c-0.2,0.9-0.6,1.6-1.1,2.2c-1,1.2-2.3,1.8-4,1.8c-1.3,0-2.4-0.3-3.5-1l1.5-2.6
			c0.7,0.5,1.4,0.7,2.1,0.7c0.9,0,1.5-0.3,1.8-1c0.4-0.7,0.6-1.9,0.6-3.6v-12.8H441.6z"/>
		<path d="M457.9,129.1h-7.9v4.8h7.7v2.8h-7.7v6.6h7.9v2.8h-10.9v-19.8h10.9V129.1z"/>
		<path d="M461.6,146.1l4.2-21.3l6.8,15.4l7.1-15.4l3.7,21.3h-3.1l-1.9-12l-5.9,12.9l-5.7-12.9l-2.1,12H461.6z"/>
		<path d="M486.5,146.1v-21.2L501,140v-13.8h3v21.1l-14.5-15.1v13.9H486.5z"/>
		<path d="M520,141.3h-8.5l-2.2,4.8h-3.2l9.8-21.1l9.5,21.1h-3.3L520,141.3z M518.8,138.5l-2.9-6.7l-3.1,6.7H518.8z"/>
	</g>
</g>
</svg>
